<?xml version="1.0" encoding="utf-8"?>
<!-- Generator: Adobe Illustrator 24.0.0, SVG Export Plug-In . SVG Version: 6.00 Build 0)  -->
<svg version="1.1" id="Livello_1" xmlns="http://www.w3.org/2000/svg" xmlns:xlink="http://www.w3.org/1999/xlink" x="0px" y="0px"
	 viewBox="0 0 500 500" style="enable-background:new 0 0 500 500;" xml:space="preserve">
<style type="text/css">
	.st0{fill:#999999;}
	.st1{fill:#FFFFFF;}
</style>
<g>
	<path class="st0" d="M174.5,143.6c0,0-32.5,18.7-35.5,79.7s-3,167-3,167h226l3-167c0,0-4-54.5-29.5-74.8s26.5-1.2,26.5-1.2l34,63
		v180l16,9l3,3h8c0,0,9,3,8,9s-4,12-4,12H74c0,0-8.1-11.2-4-16c6-7,11-5,11-5h27l4-43l-1-111l28-102l20-15l14-13L174.5,143.6z"/>
	<path class="st1" d="M146.5,171.5c0,0,24.5-38.2,81.5-51.2s114,33,114,33s17,12,26,43s7,206,7,206h40v-163c0,0,2-81-54-121
		s-86-39-108-41s-73-1-115,41s-47,114-47,114l-3,170h42C130,402.3,125.5,194.5,146.5,171.5"/>
</g>
<path class="st1" d="M157,158c0,0-17.3,17.2-22.4,63.8s-20.1-17.3-20.1-17.3l24-46l17-13L157,158z"/>
</svg>
