<?xml version="1.0" encoding="utf-8"?>
<!-- Generator: Adobe Illustrator 24.0.0, SVG Export Plug-In . SVG Version: 6.00 Build 0)  -->
<svg version="1.1" id="Livello_1" xmlns="http://www.w3.org/2000/svg" xmlns:xlink="http://www.w3.org/1999/xlink" x="0px" y="0px"
	 viewBox="0 0 500 500" style="enable-background:new 0 0 500 500;" xml:space="preserve">
<style type="text/css">
	.st0{fill:#FFFFFF;}
</style>
<path class="st0" d="M355.8,377.7c-30.2-5.2-45.9-29.2-45.9-29.2c-11.5-13.5-2.1-34.4-2.1-34.4c4.2-10.4,41.7-34.4,41.7-34.4
	c21.9-20.8,7.3-45.9,7.3-45.9c-1-8.3-42.7-40.6-42.7-40.6c-12.5-12.5-4.2-19.8-4.2-19.8c6.3-7.3,17.7-4.2,17.7-4.2
	c4.2,1,7.3,0,7.3,0v-27.1c0,0-19.8,0-20.8-1s-1-3.1-1-3.1c1-3.1,0-8.3,0-8.3c-12.5-54.2-62.5-52.1-62.5-52.1l-0.5,2.7l-0.5-2.7
	c0,0-50-2.1-62.5,52.1c0,0-1,5.2,0,8.3c0,0,0,2.1-1,3.1s-20.8,1-20.8,1v27.1c0,0,3.1,1,7.3,0c0,0,11.5-3.1,17.7,4.2
	c0,0,8.3,7.3-4.2,19.8c0,0-41.7,32.3-42.7,40.6c0,0-14.6,25,7.3,45.9c0,0,37.5,24,41.7,34.4c0,0,9.4,20.8-2.1,34.4
	c0,0-15.6,24-45.9,29.2c0,0-6.3,0-6.3,4.2v40.6h8.3h207.4h8.3v-40.6C362,377.7,355.8,377.7,355.8,377.7z M250,272.4
	c-10.6,0-19.3-8.6-19.3-19.3c0-10.6,8.6-19.3,19.3-19.3c10.7,0,19.3,8.6,19.3,19.3S260.6,272.4,250,272.4z"/>
</svg>
