<?xml version="1.0" encoding="utf-8"?>
<!-- Generator: Adobe Illustrator 24.0.0, SVG Export Plug-In . SVG Version: 6.00 Build 0)  -->
<svg version="1.1" id="Livello_1" xmlns="http://www.w3.org/2000/svg" xmlns:xlink="http://www.w3.org/1999/xlink" x="0px" y="0px"
	 viewBox="0 0 1417.3 1417.3" style="enable-background:new 0 0 1417.3 1417.3;" xml:space="preserve">
<style type="text/css">
	.st0{fill:#523E5E;}
	.st1{fill:#523E5E;stroke:#4FBDAA;stroke-width:14.6908;stroke-miterlimit:10;}
	.st2{fill:#DDDFDF;stroke:#4FBDAA;stroke-width:14.6908;stroke-miterlimit:10;}
	.st3{fill:#F7941D;}
	.st4{fill:#DDDFDF;}
	.st5{fill:#4FBDAA;}
</style>
<g>
	<g>
		<g>
			<g>
				<path class="st0" d="M1151.4,966.8c-47.5,0-68.9-29.9-70.7-32.5c-2.4-3.3-43.1-61.7-58.7-115.1c-20-68.3-16.3-98.1,0.2-143
					c17.4-47.4,103.6-78.7,110.6-81.2c4.1-1.8,39.6-16.4,88.2-16.4c6.6,0,13.3,0.3,19.8,0.8c76.2,6.4,93.5,45.5,97.6,110.8
					c1.9,30-19.6,59.3-63.9,87c-31,19.4-62,30.9-64.3,31.8c-18.3,7.2-40.2,18.6-43.6,24.2c-0.9,1.4-2.8,5-1.7,6.9
					c1.3,2.2,7.5,5.6,19.4,5.6c11.4,0,23.7-3,33.6-8.2c16.4-8.6,81.2-44.6,95.6-54.5c7.4-5.1,15.3-7.7,23.6-7.7
					c17.6,0,32.8,12.3,36.9,21.2c0.2,0.5,1,1.8,1.7,2.8c6.7,10.6,27,42.8-12.5,76.1c-19.1,16.1-93.6,59-168,83.7
					C1179.9,964.2,1165.2,966.8,1151.4,966.8C1151.4,966.8,1151.4,966.8,1151.4,966.8z M1134,741.4c0.5,0.1,1.4,0.2,2.6,0.2
					c3.8,0,18.5-0.9,46.6-12.5c8.8-3.6,37.3-16.9,34.6-33.8c-3.3-20.8-8.2-26.1-23.7-26.1c-0.8,0-1.7,0-2.6,0.1
					c-13.5,0.6-24.5,4.5-33.5,8.2c-10.6,4.4-24.8,13.8-30.4,26.1C1122.7,714.2,1129.7,736.7,1134,741.4z"/>
				<path class="st0" d="M1220.9,587.4c6.1,0,12.5,0.2,19.1,0.8c69.4,5.9,85.5,38.5,89.5,102.5c4,64-122.5,110-122.5,110
					s-40.8,15.9-48,27.9c-10.2,17,4.8,25.8,25.3,25.8c12,0,25.9-3,37.7-9.2c17-8.9,81.7-44.8,96.5-55c6.4-4.4,12.7-6.1,18.6-6.1
					c14.7,0,26.4,10.7,28.9,16.1c3.5,7.5,30,36-8.5,68.5c-17.4,14.7-91,57.5-165,82c-15.6,5.2-29.2,7.2-41,7.2
					c-44.5,0-63.5-28.7-63.5-28.7s-42-59.5-57.5-112.5c-18.8-64.2-16.5-92.5,0-137.5c16.5-45,105.5-76,105.5-76
					S1171.5,587.4,1220.9,587.4 M1136.6,750.3c9.8,0,27.3-3.8,50-13.2c13.6-5.6,43.5-20.7,39.9-43.3c-3.4-21.8-9.9-33.6-32.4-33.6
					c-0.9,0-1.9,0-2.9,0.1c-13.8,0.6-25.2,4.2-36.6,8.9c-10.7,4.5-27.9,14.9-35,30.6c-7,15.6,3.3,47.5,11.2,49.9
					C1132.2,750.1,1134.2,750.3,1136.6,750.3 M1220.9,569.8L1220.9,569.8c-49.2,0-85.7,14.6-91.4,17c-4,1.4-25.3,9.3-48.6,22.1
					c-36.1,19.9-58.7,41.5-67,64.3c-9.9,26.9-14,46.5-14.3,67.4c-0.3,22.4,3.9,46.7,13.9,81.1c15.9,54.4,57,113.4,59.9,117.6
					c1.5,2.2,7.6,10.5,19.5,18.8c16.5,11.5,36.7,17.5,58.5,17.5c14.7,0,30.4-2.7,46.6-8.1c75.4-25,151.3-68.8,170.9-85.3
					c18.9-16,27.9-33.9,26.8-53.4c-0.9-15.8-8.5-27.8-12.5-34.2c-0.4-0.7-1.1-1.7-1.3-2.1c-2.9-6-8.7-12.3-16-17.1
					c-6.2-4.1-16.2-9-28.8-9c-10.1,0-19.7,3.1-28.6,9.2c-13.5,9.3-76.1,44.2-94.7,53.9c-8.6,4.5-19.7,7.2-29.5,7.2
					c-3.4,0-6.1-0.3-8.2-0.7c2.7-2,8.1-5.6,18.6-10.7c9.1-4.4,17.4-7.7,18.6-8.2c3.2-1.2,34.6-12.9,65.9-32.6
					c19.6-12.3,35.2-25.2,46.4-38.4c15.5-18.3,22.8-37.4,21.6-56.7c-1.8-28.1-6-59.8-23.9-82.8c-16.7-21.4-42.7-32.9-81.7-36.2
					C1234.7,570.1,1227.8,569.8,1220.9,569.8L1220.9,569.8z M1139.1,732.6c-1.1-2.5-2.4-6.3-3.4-11c-1.5-7.6-0.9-12.9-0.1-14.6
					c4.2-9.3,15.9-17.5,25.7-21.6c11.9-4.9,20.8-7.1,30.5-7.5c0.8,0,1.5,0,2.2,0c0,0,0,0,0,0c7.9,0,9.5,1.9,10,2.5
					c2,2.3,3.7,7.8,5,16.2c1,6.6-11.3,16.8-29.3,24.3C1160.9,728.7,1146.9,732,1139.1,732.6L1139.1,732.6z M1173.2,839.4
					C1173.2,839.4,1173.2,839.4,1173.2,839.4C1173.2,839.4,1173.2,839.4,1173.2,839.4L1173.2,839.4z"/>
			</g>
			<g>
				<path class="st0" d="M193.1,974.1c-35.9,0-62.5-6.8-78.9-20.2c-38.9-31.7-58.1-56.6-76.6-128.8c-14.7-57.4-2.8-120.2-2.3-122.8
					c0.4-2.4,12.1-61.7,81.7-95c31.5-15.1,70.3-22.7,115.2-22.7c37,0,68.1,5.2,81.4,7.5l1.6,0.3C337.6,596,353,605.7,361,621
					c6.5,12.5,6.1,25.8,5.9,32.9c0,1.3-0.1,3,0,3.5c0.8,7.7-3.1,20.6-12,30.5c-8.2,9-19,13.8-31.5,13.8c-1.1,0-2.3,0-3.4-0.1
					c-3.6-0.2-9.9-0.4-18.6-0.4c-30.2,0-81.6,1.5-96.9,2.4c-30.3,1.6-52.3,17.7-57.5,42.1c-3.7,17.3,2.1,45.1,15.8,76.2
					c12.3,27.8,26.5,48.3,31.6,51.9c10.1,7.1,23.8,8.1,31.1,8.1c3.6,0,7.3-0.3,10.6-0.7c10.2-1.5,22.3-3.8,34.8-10.6
					c16.5-8.8,18.5-16.7,10-38.2c-3.5-8.8-14.3-13-33.2-13c-5.4,0-10.6,0.4-14.8,0.6c-0.9,0.1-1.7,0.1-2.5,0.2
					c-1.3,0.1-2.6,0.2-3.8,0.3c-2.8,0.2-5.7,0.5-8.6,0.5c-7.6,0-18.6-1.6-25.8-15.1c-11.7-20.2-14.4-37.3-8-50.7
					c7.8-16.6,26.5-20.4,28.4-20.8c1.7-0.3,31.6-5.8,67.1-5.8c24.9,0,46.3,2.7,63.7,8.1c23.5,7.3,39.7,19.4,48.2,36.1
					c31.1,60.9,36.4,105.3-28.7,151.7c-50.2,35.7-100.4,43-105.7,43.6C253.6,968.7,225.2,974.1,193.1,974.1
					C193.1,974.1,193.1,974.1,193.1,974.1z"/>
				<path class="st0" d="M232.2,593.3c37.8,0,69.3,5.6,81.5,7.6c52.2,8.7,43.5,48.7,44.3,57.3c0.8,8.4-8.3,34.6-34.7,34.6
					c-0.9,0-1.9,0-2.8-0.1c-4.1-0.3-10.9-0.4-19.2-0.4c-30.4,0-81.6,1.5-97.3,2.4c-37.9,2-60.2,23.5-65.6,49
					c-9.6,45,36.3,126.8,51,137.1c10.7,7.5,24.7,9.7,36.1,9.7c4.4,0,8.5-0.3,11.9-0.8c12.7-1.8,25-4.7,37.7-11.6
					c23-12.4,22.9-26.8,14-49.2c-6.2-15.7-25.2-18.6-41.3-18.6c-6.9,0-13.3,0.5-17.9,0.8c-4.2,0.3-8.1,0.7-11.8,0.7
					c-7.3,0-13.5-1.8-18.1-10.5c-29.6-51.2,14.3-58.6,14.3-58.6s30.2-5.7,65.5-5.7c40.5,0,87.7,7.5,104,39.5
					c30.6,59.9,33.5,98.1-26,140.5c-50.6,36.1-102,42.1-102,42.1s-29.6,6-62.7,6c-26.8,0-55.9-3.9-73.3-18.2
					c-39-31.8-56.2-56.2-73.6-124.2c-14.4-56.2-2.2-119-2.2-119s10.5-57,76.8-88.8C156.4,598.2,197.1,593.3,232.2,593.3
					 M232.2,575.7C232.2,575.7,232.2,575.7,232.2,575.7c-46.2,0-86.3,7.9-119,23.6c-72.5,34.7-85.7,97-86.5,101.3h0
					c-0.5,2.7-12.7,67.4,2.5,126.7c9.3,36.4,18.5,60.5,30.7,80.5c11.4,18.7,25.6,34,48.8,53c18,14.7,46.4,22.1,84.4,22.1
					c32.1,0,60.7-5.3,65.5-6.2c7.2-1,58.5-8.9,109.4-45.2c33.3-23.7,50.4-47.8,54-75.8c3.9-30.2-9.2-60.9-22.6-87.1
					c-9.7-18.9-27.6-32.5-53.5-40.6c-18.2-5.7-40.5-8.5-66.3-8.5c-35.8,0-66.1,5.5-68.6,6c-3.4,0.6-25.2,5.3-34.9,25.7
					c-7.6,16.2-4.8,35.9,8.3,58.8c7,13,18.3,19.6,33.5,19.6c3.2,0,6.3-0.2,9.3-0.5c1.2-0.1,2.4-0.2,3.7-0.3c0.8-0.1,1.7-0.1,2.6-0.2
					c4-0.3,9.1-0.6,14.2-0.6c8.2,0,22.4,1,25,7.5c3.5,8.7,4.8,14.8,4.1,18.1c-0.6,2.7-4,5.8-10.1,9.1c-9.1,4.9-18.4,7.7-31.9,9.6
					c-2,0.3-5.3,0.6-9.4,0.6c-10.7,0-19.9-2.3-25.9-6.5c-3.6-3-17-21.3-29.3-49.7c-12.6-28.8-17.9-54.1-14.7-69.4
					c4.4-20.6,22.8-33.7,49.3-35.1c15.2-0.8,66.4-2.3,96.4-2.3c10.6,0,15.7,0.2,18,0.4c1.4,0.1,2.7,0.1,4,0.1c15,0,28.1-5.8,38-16.7
					c11-12.2,15.1-27.6,14.3-37c0-0.5,0-1.7,0-2.6c0.2-7.9,0.6-22.6-6.9-37.1c-9.3-17.9-26.8-29.2-52.1-33.4l-1.6-0.3
					C301.6,581,270,575.7,232.2,575.7L232.2,575.7L232.2,575.7z"/>
			</g>
			<g>
				<path class="st0" d="M1025.7,974.1c-36.3,0-52.1-26.5-55.6-41l-26.3-75l-28.4,75.2l-0.2,0.4c-11.9,24.6-29.1,27.4-44.2,28.2
					l-3.2,0.1h-0.3c-2.3,0.1-5.6,0.2-8.8,0.2c-3.8,0-6.5-0.1-8.5-0.4c-0.8,0-1.7-0.1-2.5-0.2c-13.8-1.1-29.3-5.2-40.4-27.9l-0.2-0.4
					l-28.4-75.2l-26.3,75c-3.5,14.5-19.3,41-55.6,41c-2.7,0-5.5-0.1-8.3-0.4c-1.5-0.1-3.3-0.3-5.4-0.4c-13.8-0.9-34.7-2.3-46-15.3
					c-5.2-6-7.6-13.5-7-22.4c0-3.6,0.5-33.5,8.7-81.4c7.9-46,24.7-117.9,60.3-199.3c1.5-3.5,27.4-62.9,86.1-64.6
					c0.5,0,1.5-0.1,2.9-0.1c11.4,0,47.6,3.1,73.1,39.6c25.5-36.5,61.7-39.6,73.1-39.6c1.4,0,2.4,0,2.9,0.1
					c58.7,1.7,84.7,61.1,86.1,64.6c35.6,81.4,52.5,153.3,60.3,199.3c8.2,47.9,8.6,77.9,8.7,81.4c0.6,8.8-1.8,16.4-7,22.4
					c-11.3,13-32.2,14.4-46,15.3c-2.1,0.1-4,0.3-5.4,0.4C1031.2,973.9,1028.4,974.1,1025.7,974.1
					C1025.7,974.1,1025.7,974.1,1025.7,974.1z"/>
				<path class="st0" d="M934.4,599c1.6,0,2.5,0.1,2.5,0.1c54.3,1.5,78.5,59.3,78.5,59.3c68.3,156,68.3,277.6,68.3,277.6
					c2.1,28.8-36.4,27.6-50.5,29c-2.6,0.3-5.1,0.4-7.4,0.4c-39.4,0-47.1-34.6-47.1-34.6l-34.5-98.3l-36.8,97.5
					c-10,20.6-23.4,22.6-36.7,23.2l0,0c0,0-0.1,0-0.2,0c-0.9,0-1.8,0.1-2.8,0.1c0,0,0,0,0,0c0,0,0,0,0,0c-2.3,0.1-5.6,0.2-8.8,0.2
					c-3,0-5.9-0.1-7.6-0.3c0,0,0,0,0,0c-0.9,0-1.8-0.1-2.7-0.2c-12.1-0.9-24-4.2-33.1-23l-36.8-97.5L744,930.6
					c0,0-7.7,34.6-47.1,34.6c-2.4,0-4.8-0.1-7.4-0.4c-14.1-1.4-52.6-0.2-50.5-29c0,0,0-121.5,68.3-277.6c0,0,24.2-57.8,78.5-59.3
					c0,0,0.9-0.1,2.5-0.1c10.2,0,49.9,3,73.1,47.8C884.5,602,924.2,599,934.4,599 M934.4,581.3c-7.4,0-22.2,1.1-38.9,8.7
					c-13.2,5.9-24.6,14.4-34.2,25.4c-9.6-11-21-19.5-34.2-25.4c-16.7-7.5-31.6-8.7-38.9-8.7c-1.5,0-2.6,0-3.3,0.1
					c-27.1,0.9-52,13.4-72,36.2c-14,15.9-20.8,31.4-21.8,33.7c-35.9,82.2-53,154.8-60.9,201.3c-8.1,47.5-8.7,77.8-8.8,82.6
					c-0.6,11,2.5,20.8,9.2,28.5c13.7,15.8,37.7,17.4,52,18.3c2,0.1,3.8,0.3,5.1,0.4c3.1,0.3,6.2,0.5,9.2,0.5
					c27.4,0,43.5-13.1,52.2-24c7.7-9.8,10.9-19.5,11.8-23.2l18.2-51.8l19.7,52.2l0.3,0.8l0.4,0.7c13.1,26.9,32.3,31.7,47.6,32.9
					c0.8,0.1,1.7,0.1,2.4,0.2c2.3,0.3,5.3,0.4,9.3,0.4c3.2,0,6.5-0.1,8.9-0.2h0.3l0.4,0c1,0,1.9-0.1,2.9-0.1l0.2,0
					c8.5-0.4,17.6-1.4,26.6-6c10.6-5.3,18.8-14.2,25.1-27.1l0.4-0.7l0.3-0.8l19.7-52.2l18.2,51.8c1,3.7,4.1,13.4,11.8,23.2
					c8.7,11,24.7,24,52.2,24c3,0,6.1-0.2,9.2-0.5c1.3-0.1,3.1-0.3,5.1-0.4c14.3-1,38.3-2.5,52-18.3c6.7-7.7,9.8-17.5,9.2-28.5
					c0-4.8-0.7-35.1-8.8-82.6c-7.9-46.5-25-119.1-60.9-201.3c-1-2.4-7.9-17.8-21.8-33.7c-20-22.8-44.9-35.3-72-36.2
					C937,581.4,935.9,581.3,934.4,581.3L934.4,581.3z"/>
			</g>
			<g>
				<path class="st0" d="M447.5,980.4c-21,0-48.6-2.6-60.7-15.3c-7.8-8.1-20-55-27.5-95c-6.6-35.2-16.9-103.3-11.3-163.7
					c4.8-52.4,20.5-88.5,46.6-107.2c1.1-0.8,25-17.3,65.8-20.2c-7.4-22.9-19.8-74.2,3.2-109.1c14.5-22,40.1-33.4,76.1-33.9
					c0.7,0,1.3,0,2,0c34.2,0,58.5,10.7,72.2,31.7c23,35.3,8.3,89.3-0.2,113.4c13.3,0.5,35.4,2.4,55.9,9.4c33,11.3,51.2,32,52.6,59.9
					c3.7,70.6-26.3,78-30.9,78.7c-1.2,0.2-8.1,1.3-18.3,1.3c-10.7,0-27.2-1.2-44.9-7.1c-4.1-1.4-7.9-2.1-11-2.1
					c-10.8,0-12.3,8.9-12.5,9.9l-0.1,0.6l0,0c-0.1,0.8-0.2,3.4,2,6.1c3.6,4.5,12.1,7.5,24,8.2c20.9,1.3,42.6,6.8,59.5,14.9
					c20.9,10,32.1,22.9,32.5,37.1c0.7,22.5-3.1,102.9-11.8,126.6c-1.6,4.5-2.8,9-3.9,13.4c-3.8,15.4-8.6,34.6-39.4,34.6
					c-29.8,0-75.7-3.1-81.1-3.5c-0.1,0-0.1,0-0.2,0c-2.7,0-12.2-0.7-18.7-10.1c-9.6-13.6-7.9-37.7,5.2-73.7l0.1-0.3l0.1-0.3
					c1.8-4,6-16.9,2.1-23.9c-0.6-1.1-2.6-4.6-10.7-5.8c-15.3-2.1-27.8-3.2-38.2-3.2c-20.3,0-32.8,4-35.2,11.2
					c-0.9,4.2,6.5,24,15.9,49.1c7,18.7,6.8,36.5-0.5,48.9c-3.8,6.5-11.7,14.7-27,16.9C469.3,979.6,458.2,980.4,447.5,980.4z
					 M484.2,744.4c0.4,0,37.1,1.5,57,2.8c0.2,0,0.5,0,0.7,0c1.9,0,5.4,0,8-8.9c2.1-7.4,2.3-17.1,2.4-23.5l0-0.5
					c0.1-5.5-3.1-6.6-4.3-6.8l-31.4-2h-30.3c-3,0.2-6.7,0.5-7.7,0.9c-1.8,2.2-3.2,14.7-3.6,18.9c-0.8,7.2,0.1,12.7,2.8,15.8
					c2.4,2.8,5.8,3.2,6.4,3.3L484.2,744.4L484.2,744.4z"/>
				<path class="st0" d="M541.5,444.9c123,0,59.1,145,59.1,145s1.9-0.1,5.2-0.1c21.7,0,104.3,3.8,107.4,61.1
					c3.5,66-23.5,69.5-23.5,69.5s-6.5,1.2-16.9,1.2c-10.9,0-26-1.3-42.1-6.7c-5.4-1.8-9.9-2.5-13.8-2.5c-18.8,0-21.2,17.5-21.2,17.5
					s-5,22.5,34,25c39,2.5,83.1,20.5,83.8,43.5c0.7,23-3.2,101.6-11.3,123.3c-8,21.7-4,42.2-35,42.2c-31,0-80.9-3.5-80.9-3.5
					s-0.1,0-0.4,0c-3.5,0-30.6-2.2-5.3-72c0,0,17-37.5-15.5-42c-12.4-1.7-26.5-3.2-39.4-3.2c-20.9,0-39.1,3.9-43.6,17.2
					c-2.1,6.2,2.8,19.5,16,55c8.4,22.5,7,50-20.5,54c-8.9,1.3-19.4,2.1-30.1,2.1c-22.5,0-45.6-3.4-54.4-12.6
					c-13-13.5-82.3-289.1,6.5-352.6c0,0,27-19,73-19c0,0-58.5-141,67-142.5C540.3,444.9,540.9,444.9,541.5,444.9 M541.8,756
					c18.8,0,19-27.6,19.3-41.5c0.3-14.3-12.3-15.8-12.3-15.8l-32-2H486c-14.6,1-16.8,1-19.8,27.6c-3.2,28.7,17.7,28.9,17.7,28.9
					s36.8,1.5,56.8,2.8C541,756,541.4,756,541.8,756 M541.5,427.2L541.5,427.2L541.5,427.2c-0.7,0-1.4,0-2.1,0
					c-19.9,0.2-37.1,3.7-51.2,10.3c-13.5,6.3-24.3,15.6-32.2,27.5c-14,21.2-18,49.7-12.1,84.7c1.4,7.9,3.1,15.3,4.8,21.6
					c-36.7,5-58.3,19.9-59.3,20.6l-0.1,0l-0.1,0c-28.3,20.2-45.2,58.4-50.2,113.5c-5.6,61.4,4.8,130.4,11.5,166.1
					c4.3,22.8,9.5,45.3,14.7,63.4c8.4,29.1,12.8,33.7,15.1,36.1c6.7,7,16.9,11.8,31.2,14.8c10.2,2.1,22.6,3.2,35.9,3.2
					c11.3,0,22.6-0.8,32.7-2.2c18.8-2.7,28.5-13,33.3-21.2c8.7-14.6,9.1-35.2,1.2-56.4c-7.1-19-13.8-37-15.1-43.8
					c1.9-1.4,8.1-4.6,26.2-4.6c10,0,22.1,1,37,3.1c2.8,0.4,4,1.1,4.2,1.3c1.2,1.7,0.2,10-2.4,16l-0.3,0.7l-0.2,0.6
					c-7.3,20-11.1,36.4-11.7,50.1c-0.6,13.1,2,23.8,7.6,31.7c6.1,8.7,15.7,13.8,25.8,13.9c6.7,0.5,51.8,3.5,81.4,3.5
					c16.4,0,28.3-4.7,36.5-14.3c6.9-8.2,9.3-17.7,11.5-26.9c1.1-4.4,2.1-8.5,3.6-12.5c9.5-25.8,13-108.4,12.4-130
					c-0.4-12.4-7.2-30.2-37.5-44.8c-17.9-8.6-40.8-14.4-62.8-15.8c-12.4-0.8-16.9-3.9-17.6-4.9l0,0c0.7-2.4,2-2.4,3.7-2.4
					c1.5,0,4.2,0.3,8.2,1.6c18.8,6.3,36.3,7.6,47.7,7.6c10.8,0,18.1-1.1,19.8-1.4c4-0.7,15.2-3.7,24.7-17.4
					c10.7-15.4,15.2-39.1,13.5-70.5c-0.9-17.8-7.7-33-20.2-45.3c-9.6-9.5-22.5-17-38.4-22.5c-16.2-5.5-33.1-8.1-46.8-9.2
					c2-6.6,4-14.3,5.7-22.5c7.4-36.7,4-66.1-10-87.6c-7.5-11.5-17.9-20.3-30.9-26.3C576.8,430.4,560.4,427.2,541.5,427.2
					L541.5,427.2z M486.6,714.3h29.7l27.2,1.7c-0.1,4.5-0.2,9.9-1,14.8c-0.6,4-1.4,6.3-1.9,7.5c-19.5-1.2-52.2-2.5-55.7-2.7
					c-0.2,0-0.4-0.1-0.4-0.2c-0.3-0.3-1.4-2.9-0.7-9.1c0.7-5.8,1.2-9.5,1.6-11.9C485.7,714.4,486.1,714.4,486.6,714.3L486.6,714.3z"
					/>
			</g>
		</g>
		<path class="st1" d="M1366,801.2c-3.5-7.5-25-25.5-47.5-10c-14.8,10.2-79.6,46.1-96.5,55c-32,16.8-79.2,10.4-63-16.6
			c7.2-12,48-27.9,48-27.9s126.5-46,122.5-110c-4-64-20.1-96.7-89.5-102.5c-59-5-104,15-104,15s-89,31-105.5,76
			c-16.5,45-18.8,73.4,0,137.5c15.5,53,57.5,112.5,57.5,112.5s30.5,46,104.5,21.5c74-24.5,147.6-67.3,165-82
			C1396,837.2,1369.5,808.7,1366,801.2z M1130.8,750.6c-8-2.3-18.3-34.2-11.2-49.9c7.1-15.8,24.3-26.2,35-30.6
			c11.3-4.7,22.8-8.3,36.6-8.9c24.9-1,31.8,10.8,35.4,33.5c3.6,22.7-26.3,37.7-39.9,43.3C1158.3,749.7,1138.2,752.8,1130.8,750.6z"
			/>
		<path class="st2" d="M383.7,777.6c-30.6-59.9-169.5-33.8-169.5-33.8s-43.9,7.4-14.3,58.6c6.9,13.1,17.3,10.6,29.9,9.8
			c15.4-1,50.4-4.6,59.2,17.8c8.9,22.4,9,36.8-14,49.2c-12.7,6.8-25,9.7-37.7,11.6c-12.1,1.7-33.2,1.5-48-8.9
			c-14.7-10.4-60.6-92.1-51-137.1c5.4-25.5,27.8-47,65.6-49c20.1-1.1,97.7-3.3,116.6-2c28.6,2,38.4-25.8,37.5-34.5
			c-0.9-8.6,7.8-48.6-44.3-57.3c-23.6-4-119.1-21.1-192.9,14.2C54.5,647.8,44,704.8,44,704.8s-12.1,62.8,2.2,119
			c17.4,68,34.6,92.4,73.6,124.2c39,31.8,136,12.2,136,12.2s51.3-6,102-42.1C417.2,875.6,414.3,837.5,383.7,777.6z"/>
		<path class="st2" d="M1083.6,936.8c0,0,0-121.5-68.3-277.6c0,0-24.2-57.8-78.5-59.3c0,0-48.8-4-75.6,47.8
			c-26.8-51.8-75.6-47.8-75.6-47.8c-54.3,1.5-78.5,59.3-78.5,59.3C639,815.2,639,936.8,639,936.8c-2.1,28.8,36.4,27.6,50.5,29
			c45.9,4.7,54.5-34.3,54.5-34.3l34.5-98.3l36.8,97.5c9.1,18.8,21,22.1,33.1,23c0.9,0.1,1.8,0.1,2.7,0.2c0,0,0,0,0,0
			c3.6,0.5,11.9,0.3,16.4,0.2c0,0,0,0,0,0c0.9,0,1.8-0.1,2.8-0.1c0.1,0,0.2,0,0.2,0l0,0c13.3-0.7,26.6-2.6,36.7-23.2l36.8-97.5
			l34.5,98.3c0,0,8.6,38.9,54.5,34.3C1047.2,964.3,1085.7,965.5,1083.6,936.8z"/>
		<path class="st1" d="M713.5,799.3c-0.7-23-44.8-41-83.8-43.5s-34-25-34-25s3.5-25.5,35-15c31.5,10.5,59,5.5,59,5.5
			s27-3.5,23.5-69.5c-3.5-66-112.5-61-112.5-61s64.5-146.5-61-145c-125.5,1.5-67,142.5-67,142.5c-46,0-73,19-73,19
			c-88.8,63.5-19.5,339.1-6.5,352.6c13,13.5,57,14.5,84.5,10.5c27.5-4,28.9-31.5,20.5-54c-13.3-35.5-18.1-48.8-16-55
			c7.3-21.6,50.5-18.5,83-14c32.5,4.5,15.5,42,15.5,42c-27,74.5,5.6,72,5.6,72s49.9,3.5,80.9,3.5s27-20.5,35-42.2
			S714.2,822.4,713.5,799.3z M540.6,756.8c-20-1.3-56.8-2.8-56.8-2.8s-21-0.2-17.7-28.9c3-26.6,5.2-26.6,19.8-27.6h30.9l32,2
			c0,0,12.5,1.5,12.3,15.8C560.8,729.6,560.6,758.1,540.6,756.8z"/>
	</g>
	<g>
		<g>
			<path class="st0" d="M736.1,535.4c-13.3,0-24.2-10.8-24.2-24.2v-56.7c0-13.3,10.8-24.2,24.2-24.2h452.5
				c13.3,0,24.2,10.8,24.2,24.2v56.7c0,13.3-10.8,24.2-24.2,24.2H736.1z"/>
			<path class="st3" d="M1188.6,433.9c11.4,0,20.7,9.3,20.7,20.7v56.7c0,11.4-9.3,20.7-20.7,20.7H736.1c-11.4,0-20.7-9.3-20.7-20.7
				v-56.7c0-11.4,9.3-20.7,20.7-20.7H1188.6 M1188.6,426.9H736.1c-15.3,0-27.7,12.4-27.7,27.7v56.7c0,15.3,12.4,27.7,27.7,27.7
				h452.5c15.3,0,27.7-12.4,27.7-27.7v-56.7C1216.3,439.3,1203.9,426.9,1188.6,426.9L1188.6,426.9z"/>
		</g>
		<g>
			<g>
				<path class="st4" d="M755.5,516.7c-1.8,0-3.5-0.1-5.1-0.3c-1.7-0.2-3.2-0.5-4.4-1l-0.5-0.2l-0.3-0.5c-0.7-1-1.3-2.1-1.7-3.4
					c-0.3-1.2-0.6-2.5-0.7-3.8c-0.1-1.3-0.2-2.6-0.2-4v-4.1c0-4.4,0.1-8.8,0.3-13.2c0.2-4.3,0.3-8.7,0.3-13c0-0.8,0-1.6,0-2.4
					c0-0.7,0-1.3-0.1-2c-0.4-0.4-0.9-0.9-1.3-1.6c-0.5-0.7-0.9-1.5-1.3-2.5c-0.4-1.1-0.6-2.4-0.6-4.2c0-1.6,0.1-2.9,0.2-3.9
					c0.2-1.1,0.4-2,0.7-2.6c0.4-0.8,1-1.5,1.7-1.9c0.5-0.3,1-0.5,1.7-0.8c0.6-0.3,1.5-0.5,2.7-0.7c1.1-0.2,2.4-0.3,3.7-0.5
					c1.3-0.2,2.6-0.3,3.9-0.3c1.3-0.1,2.3-0.1,3.1-0.1c3.2,0,6.4,0,9.8,0.1c3.3,0.1,6.6,0.3,9.8,0.7c3.2,0.4,6.3,1.1,9.1,2.1
					c2.9,1,5.6,2.6,7.8,4.5c2.2,2,4,4.6,5.3,7.7c1.3,3.1,1.9,6.9,1.9,11.4c0,4-0.6,7.3-1.8,10c-1.2,2.7-2.7,5-4.6,6.7
					c-1.9,1.7-4.1,3-6.5,3.9c-2.3,0.8-4.6,1.4-7,1.8c-2.3,0.3-4.6,0.5-6.8,0.5h-5.5c-0.9,0-1.6,0-2.1,0.1c0,0,0,0,0,0
					c0,0,0,0.1,0,0.1c-0.1,0.5-0.1,1.1-0.1,1.9c0,0.6,0,1.3,0.1,2.1c0,0,0.2,4.7,0.3,5.5c0.1,0.9,0.1,1.7,0.1,2.3
					c0,1.2-0.2,2.1-0.6,2.9l-0.4,0.7l-0.8,0.3c-1.4,0.5-3,0.9-4.8,1.1C759.1,516.6,757.3,516.7,755.5,516.7z M772.2,470.5
					c-1.3,0-2.3,0.1-3,0.2c-0.5,0.1-0.8,0.3-1,0.5c-0.2,0.3-0.4,0.7-0.5,1.2c-0.1,0.8-0.2,1.9-0.2,3.2c0,1.4,0.1,2.4,0.2,3.1
					c0.1,0.4,0.2,0.6,0.2,0.7c0,0,0.2,0.2,0.8,0.2c0.7,0.1,1.7,0.1,2.9,0.1c0.8,0,1.8-0.1,2.8-0.3c0.9-0.2,1.8-0.5,2.6-0.9
					c0.7-0.4,1.3-0.9,1.9-1.6c0.4-0.6,0.6-1.3,0.6-2.3c0-0.5-0.1-1-0.3-1.5c-0.2-0.4-0.5-0.8-0.9-1.2c-0.5-0.4-1.2-0.8-2.2-1.1
					C775.1,470.7,773.8,470.5,772.2,470.5z"/>
				<path class="st5" d="M757.8,451.7c3.2,0,6.4,0,9.7,0.1c3.3,0,6.5,0.3,9.5,0.7c3.1,0.4,6,1.1,8.7,2c2.7,1,5.1,2.3,7.1,4.1
					c2,1.8,3.6,4.1,4.8,7c1.2,2.9,1.8,6.4,1.8,10.7c0,3.7-0.5,6.8-1.6,9.3c-1.1,2.5-2.4,4.5-4.1,6c-1.7,1.6-3.6,2.7-5.8,3.5
					c-2.2,0.8-4.4,1.3-6.6,1.7c-2.2,0.3-4.4,0.5-6.5,0.5c-2.1,0-4,0-5.5,0c-1,0-1.8,0-2.3,0.1c-0.6,0.1-1,0.3-1.3,0.6
					c-0.3,0.3-0.4,0.7-0.5,1.3c-0.1,0.5-0.1,1.3-0.1,2.2c0,0.6,0,1.3,0.1,2.2s0.1,1.8,0.1,2.8c0,1,0.1,1.9,0.1,2.8
					c0,0.9,0.1,1.6,0.1,2.2c0,0.8-0.1,1.5-0.4,2c-1.3,0.4-2.8,0.8-4.5,1c-1.7,0.2-3.4,0.4-5.1,0.4c-1.7,0-3.3-0.1-4.9-0.3
					c-1.6-0.2-2.8-0.5-3.9-0.9c-0.6-0.8-1-1.7-1.3-2.8c-0.3-1.1-0.5-2.2-0.6-3.4c-0.1-1.2-0.1-2.5-0.1-3.9c0-1.4,0-2.7,0-4.1
					c0-4.4,0.1-8.8,0.3-13.1c0.2-4.3,0.3-8.7,0.3-13.1c0-0.8,0-1.6,0-2.3c0-0.8,0-1.5-0.1-2.3c0-0.4-0.2-0.8-0.6-1.2
					c-0.3-0.3-0.7-0.8-1.1-1.3s-0.7-1.2-1-2c-0.3-0.8-0.4-2-0.4-3.6c0-1.5,0.1-2.7,0.2-3.6c0.1-0.9,0.3-1.5,0.6-2
					c0.2-0.5,0.6-0.9,0.9-1.1c0.4-0.2,0.8-0.4,1.4-0.6c0.4-0.2,1.2-0.4,2.3-0.6c1.1-0.2,2.3-0.3,3.6-0.5c1.3-0.1,2.6-0.3,3.8-0.3
					C756.1,451.7,757,451.7,757.8,451.7 M771.5,481.8c0.9,0,2-0.1,3.1-0.3c1.2-0.2,2.2-0.6,3.2-1.1c1-0.5,1.8-1.2,2.5-2.1
					c0.7-0.9,1-2.1,1-3.5c0-0.7-0.1-1.5-0.4-2.3c-0.3-0.8-0.8-1.4-1.5-2c-0.7-0.6-1.7-1.1-2.8-1.4c-1.2-0.4-2.7-0.6-4.4-0.6
					c-1.4,0-2.6,0.1-3.5,0.3c-0.9,0.2-1.6,0.6-2.1,1.1c-0.5,0.5-0.8,1.3-1,2.2c-0.2,0.9-0.3,2.1-0.3,3.6s0.1,2.6,0.2,3.4
					c0.1,0.8,0.4,1.4,0.9,1.8c0.4,0.4,1.1,0.6,1.9,0.7C769.2,481.8,770.3,481.8,771.5,481.8 M757.8,447.7c-0.8,0-1.9,0-3.2,0.1
					c-1.3,0.1-2.7,0.2-4,0.4c-1.3,0.2-2.6,0.3-3.8,0.5c-1.4,0.2-2.4,0.5-3.1,0.8c-0.7,0.3-1.4,0.6-2,0.9c-1,0.6-1.9,1.5-2.4,2.7
					c-0.4,0.9-0.8,2-0.9,3.3c-0.2,1.1-0.2,2.4-0.2,4.2c0,2,0.2,3.6,0.7,4.9c0.4,1.2,0.9,2.2,1.5,3c0.3,0.5,0.7,0.9,1,1.3
					c0,0.4,0,0.7,0,1.1c0,0.8,0,1.6,0,2.5c0,4.3-0.1,8.7-0.3,12.9c-0.2,4.4-0.3,8.8-0.3,13.3v4.1c0,1.5,0.1,2.9,0.2,4.2
					c0.1,1.5,0.4,2.9,0.7,4.2c0.4,1.5,1.1,2.9,2,4.1l0.7,0.9l1.1,0.4c1.4,0.5,3,0.9,4.9,1.1c1.7,0.2,3.5,0.3,5.3,0.3
					c1.9,0,3.8-0.1,5.7-0.4c1.9-0.3,3.7-0.7,5.2-1.2l1.5-0.5l0.7-1.5c0.5-1.1,0.8-2.3,0.8-3.8c0-0.7,0-1.4-0.1-2.4
					c0-0.9-0.1-1.8-0.1-2.8c-0.1-1-0.1-1.9-0.1-2.8c0-0.8-0.1-1.5-0.1-2c0,0,0-0.1,0-0.1c0.1,0,0.1,0,0.2,0h5.5
					c2.3,0,4.7-0.2,7.1-0.5c2.5-0.4,5-1,7.4-1.9c2.7-1,5.1-2.4,7.1-4.3c2.1-1.9,3.8-4.4,5.1-7.4c1.3-3,1.9-6.6,1.9-10.8
					c0-4.7-0.7-8.8-2.1-12.2c-1.4-3.4-3.4-6.3-5.8-8.5c-2.4-2.1-5.2-3.8-8.4-4.9c-3-1.1-6.2-1.8-9.5-2.2c-3.2-0.4-6.6-0.6-10-0.7
					C764.2,447.7,761,447.7,757.8,447.7L757.8,447.7z M769.6,472.7c0.4-0.1,1.2-0.2,2.6-0.2c1.7,0,2.7,0.2,3.2,0.4
					c0.9,0.3,1.3,0.6,1.5,0.7c0.1,0.1,0.3,0.3,0.3,0.4c0.1,0.3,0.2,0.6,0.2,0.8c0,0.5-0.1,0.9-0.2,1.1c-0.3,0.4-0.7,0.8-1.2,1
					c-0.6,0.3-1.3,0.5-2,0.7c-0.9,0.2-1.8,0.2-2.5,0.2c-0.8,0-1.5,0-2.1-0.1c0-0.5-0.1-1.1-0.1-2.1c0-1.5,0.1-2.4,0.2-2.8
					C769.6,472.8,769.6,472.8,769.6,472.7L769.6,472.7z"/>
			</g>
			<g>
				<path class="st4" d="M819.8,515.9c-1.8,0-3.4-0.1-4.7-0.4l-0.6-0.1l-0.4-0.4c-0.5-0.5-0.8-1.1-1.2-2c-0.2-0.7-0.4-1.2-0.5-1.7
					l0-0.1c-0.2-1.1-0.4-2.6-0.5-4.4c-0.2-1.8-0.3-3.8-0.4-5.9c-0.1-2.1-0.2-4.5-0.3-6.9l-0.2-7.2c-0.1-2.4-0.1-4.7-0.1-6.8
					c0-2.2,0-4,0-5.6v-0.4c0-0.7,0-1.4-0.1-2c-0.3-0.2-0.6-0.3-0.9-0.5c-0.7-0.4-1.2-0.9-1.8-1.7c-0.5-0.7-0.9-1.6-1.2-2.8
					c-0.3-1-0.5-2.3-0.6-4c-0.1-0.8-0.1-1.7,0-2.6c0.1-0.9,0.2-1.9,0.4-2.8c0.2-0.9,0.6-1.8,1-2.6c0.5-0.9,1.2-1.7,2-2.3
					c1.8-1.3,4.2-1.9,7.4-2.1c2.9-0.1,6.4-0.2,10.6-0.2c2.8,0,5.8,0,8.8,0c3.1,0,6.2,0.2,9.1,0.5c3,0.3,5.9,0.8,8.6,1.5
					c2.8,0.7,5.3,1.8,7.5,3.2c2.2,1.5,4,3.4,5.3,5.8c1.3,2.4,2,5.3,2,8.7c0,2.3-0.4,4.3-1.1,6.1c-0.7,1.7-1.6,3.3-2.6,4.7
					c-1,1.3-2.1,2.5-3.3,3.5c-1.1,0.9-2.2,1.8-3.1,2.5c-0.7,0.5-1.3,0.9-1.8,1.3c0.7,0.7,1.6,1.6,2.7,2.6c1.1,1.1,2.3,2.4,3.6,3.8
					c1.4,1.5,2.6,3,3.8,4.7c1.2,1.7,2.1,3.4,2.9,5.2c0.8,1.9,1.3,3.9,1.3,5.9v1.2l-1.1,0.6c-1.2,0.6-2.6,1.2-4.3,1.6
					c-1.6,0.5-3.4,0.8-5.2,1.1c-1.8,0.3-3.6,0.5-5.5,0.5c-0.3,0-0.5,0-0.8,0c-1.6,0-3.1-0.1-4.6-0.4l-0.3-0.1l-0.3-0.2
					c-1.7-1-3.2-2.5-4.4-4.4c-1.1-1.7-2.1-3.5-2.9-5.3c-2.2-4.4-3.7-6.4-4.6-7.2c-0.7-0.6-1.1-1-1.4-1.2c0,0.4,0.1,0.9,0.2,1.7
					c0.2,1.4,0.4,2.9,0.5,4.6c0.2,1.7,0.2,3.4,0.1,5.2c-0.1,1.9-0.5,3.5-1.2,4.8l-0.4,0.7l-0.8,0.3c-1.3,0.4-2.8,0.8-4.5,1.1
					c-1.7,0.3-3.4,0.5-5.2,0.7C823.3,515.8,821.5,515.9,819.8,515.9z M836.7,470.7c-2.2,0-3,0.5-3.2,0.6c0,0-0.5,0.5-0.5,3
					c0,1.1,0,2,0.1,2.8c0.1,0.5,0.2,1,0.4,1.3c0,0.1,0.1,0.2,0.5,0.3c0.3,0.1,0.9,0.2,2,0.2c0.7,0,1.5-0.1,2.4-0.4
					c1-0.3,2-0.7,2.9-1.2c0.9-0.5,1.6-1,2.2-1.6c0.5-0.5,0.5-0.8,0.5-1c0-0.8-0.2-1.7-1.7-2.7C840.8,471.1,838.9,470.7,836.7,470.7z
					"/>
				<path class="st5" d="M827.7,452.4c2.8,0,5.7,0,8.8,0c3.1,0,6,0.2,9,0.5c2.9,0.3,5.7,0.8,8.3,1.4c2.6,0.7,4.9,1.7,6.9,3
					c2,1.3,3.5,3,4.7,5.1c1.2,2.1,1.7,4.7,1.7,7.7c0,2-0.3,3.8-0.9,5.4c-0.6,1.6-1.4,3-2.3,4.2c-0.9,1.2-1.9,2.3-3,3.2
					c-1.1,0.9-2.1,1.7-3,2.4c-0.9,0.7-1.7,1.2-2.3,1.7c-0.6,0.5-0.9,0.9-0.9,1.2c0,0.2,0.4,0.7,1.1,1.4c0.7,0.7,1.7,1.6,2.7,2.7
					c1.1,1.1,2.3,2.3,3.6,3.7c1.3,1.4,2.5,2.9,3.6,4.4c1.1,1.6,2,3.2,2.7,4.9s1.1,3.4,1.1,5.1c-1,0.5-2.3,1-3.9,1.5
					c-1.6,0.4-3.2,0.8-4.9,1.1c-1.7,0.3-3.5,0.4-5.2,0.5c-0.2,0-0.5,0-0.7,0c-1.5,0-2.9-0.1-4.2-0.4c-1.4-0.8-2.7-2.1-3.7-3.8
					c-1.1-1.7-2-3.4-2.8-5c-1.9-3.8-3.5-6.4-5-7.8c-1.4-1.4-2.5-2.1-3.2-2.1c-0.8,0-1.3,0.1-1.4,0.4c-0.2,0.3-0.3,0.7-0.3,1.2
					c0,0.4,0.1,1.3,0.3,2.7c0.2,1.3,0.4,2.8,0.5,4.4c0.1,1.6,0.2,3.3,0.1,4.9c-0.1,1.6-0.4,3-0.9,4c-1.2,0.4-2.6,0.7-4.2,1
					c-1.6,0.3-3.3,0.5-5,0.7c-1.7,0.1-3.4,0.2-5.1,0.2c-1.7,0-3.1-0.1-4.3-0.4c-0.2-0.2-0.5-0.7-0.7-1.3c-0.2-0.6-0.4-1.1-0.5-1.5
					c-0.2-1-0.4-2.4-0.5-4.2c-0.1-1.8-0.3-3.7-0.4-5.9c-0.1-2.2-0.2-4.5-0.3-6.9c-0.1-2.4-0.1-4.8-0.2-7.2c-0.1-2.4-0.1-4.6-0.1-6.8
					c0-2.1,0-4,0-5.6v-0.4c0-0.8,0-1.6-0.1-2.3c0-0.7-0.3-1.2-0.9-1.4c-0.3-0.1-0.6-0.3-1-0.6c-0.4-0.2-0.8-0.6-1.1-1.1
					s-0.7-1.2-0.9-2.1c-0.2-0.9-0.4-2.1-0.5-3.6c0-0.7,0-1.5,0-2.3s0.2-1.6,0.4-2.4c0.2-0.8,0.5-1.5,0.9-2.1s0.9-1.2,1.4-1.7
					c1.4-1,3.5-1.5,6.3-1.7C820,452.5,823.5,452.4,827.7,452.4 M835.9,480.8c0.8,0,1.8-0.2,3-0.5c1.1-0.3,2.2-0.8,3.3-1.3
					c1.1-0.6,2-1.2,2.7-2c0.7-0.7,1.1-1.5,1.1-2.4c0-1.8-0.9-3.3-2.7-4.4c-1.8-1.1-4-1.6-6.7-1.6c-2.1,0-3.5,0.3-4.4,1
					c-0.9,0.7-1.3,2.2-1.3,4.5c0,1.2,0,2.2,0.1,3c0.1,0.8,0.3,1.5,0.6,2c0.3,0.5,0.8,0.9,1.5,1.2
					C833.9,480.7,834.8,480.8,835.9,480.8 M827.7,448.4c-4.2,0-7.8,0.1-10.7,0.2c-3.7,0.2-6.4,0.9-8.5,2.4l0,0l0,0
					c-1,0.8-1.9,1.8-2.5,2.9c-0.5,1-0.9,2-1.2,3.1c-0.3,1-0.4,2.1-0.5,3.1c-0.1,1-0.1,1.9,0,2.8c0.1,1.8,0.3,3.2,0.6,4.4
					c0.4,1.4,0.9,2.5,1.5,3.4c0.7,1,1.5,1.7,2.4,2.2c0,0.3,0,0.5,0,0.8v0.4c0,1.6,0,3.5,0,5.6c0,2.1,0.1,4.4,0.2,6.8l0.1,1.7
					l0.2,5.5c0.1,2.5,0.2,4.8,0.3,7c0.1,2.2,0.3,4.2,0.4,6c0.2,1.9,0.3,3.4,0.6,4.6l0,0.1l0,0.1c0.1,0.6,0.3,1.2,0.6,1.9
					c0.4,1.2,1,2,1.6,2.7l0.8,0.8l1.2,0.2c1.5,0.3,3.1,0.5,5.1,0.5c1.8,0,3.6-0.1,5.4-0.2c1.8-0.2,3.7-0.4,5.4-0.7
					c1.8-0.3,3.4-0.7,4.8-1.2l1.5-0.5l0.7-1.4c0.8-1.6,1.3-3.5,1.4-5.7c0.1-1.6,0-3.2-0.1-4.8c0.4,0.8,0.9,1.6,1.4,2.7
					c0.9,1.8,1.9,3.6,3,5.4c1.4,2.2,3.1,3.9,5.1,5.1l0.6,0.3l0.7,0.1c1.6,0.3,3.2,0.5,4.9,0.5c0.3,0,0.6,0,0.8,0
					c1.9-0.1,3.8-0.2,5.7-0.5c1.9-0.3,3.7-0.7,5.4-1.2c1.8-0.5,3.3-1.1,4.6-1.8l2.1-1.1v-2.4c0-2.2-0.5-4.5-1.4-6.7
					c-0.8-1.9-1.9-3.8-3.1-5.6c-1.2-1.7-2.5-3.3-3.9-4.9c-1.3-1.4-2.6-2.7-3.7-3.8c-0.3-0.3-0.7-0.7-1-1c1-0.7,2.1-1.6,3.2-2.5
					c1.3-1.1,2.5-2.4,3.5-3.8c1.2-1.5,2.1-3.2,2.9-5.2c0.8-2,1.2-4.3,1.2-6.9c0-3.7-0.8-7-2.2-9.7c-1.5-2.7-3.5-4.8-6-6.5
					c-2.3-1.6-5.1-2.7-8.1-3.5c-2.8-0.7-5.8-1.2-8.9-1.5c-3-0.3-6.2-0.5-9.3-0.5C833.3,448.4,830.5,448.4,827.7,448.4L827.7,448.4z
					 M835.1,472.8c0.3-0.1,0.8-0.1,1.6-0.1c1.9,0,3.4,0.4,4.6,1c0.4,0.3,0.6,0.5,0.7,0.6c-0.4,0.4-1,0.8-1.6,1.1
					c-0.8,0.4-1.6,0.8-2.5,1c-1,0.3-1.6,0.3-1.9,0.3c-0.4,0-0.6,0-0.8,0c0,0,0,0,0,0c-0.1-0.7-0.1-1.5-0.1-2.5
					C835,473.6,835,473.1,835.1,472.8L835.1,472.8z"/>
			</g>
			<g>
				<path class="st4" d="M908.5,517.8c-4.7,0-9-0.6-12.9-1.8c-4-1.2-7.5-3.2-10.4-6c-2.9-2.7-5.1-6.4-6.7-10.8
					c-1.6-4.3-2.3-9.6-2.3-15.7c0-8.4,1.5-15.1,4.3-20.1c2.9-5.1,7-8.6,12-10.6c1.3-0.5,2.8-1,4.4-1.3c1.5-0.3,3.1-0.5,4.7-0.7
					c1.6-0.2,3.2-0.3,4.7-0.3c1.6,0,3-0.1,4.4-0.1c1.3,0,2.7,0,4.1,0.1c1.5,0.1,3,0.2,4.5,0.3c1.5,0.2,3,0.4,4.5,0.7
					c1.5,0.3,2.9,0.7,4.2,1.2c2.5,1,4.8,2.4,6.8,4.2c2,1.8,3.8,3.9,5.2,6.5c1.4,2.5,2.5,5.5,3.2,8.9c0.7,3.3,1.1,7.1,1.1,11.2
					c0,6.1-0.8,11.4-2.3,15.7c-1.6,4.4-3.8,8-6.7,10.8c-2.9,2.7-6.4,4.8-10.4,6c-3.9,1.2-8.3,1.8-13,1.8H908.5z M910.2,471
					c-1.2,0-2.5,0.3-3.6,0.8c-1.2,0.5-2.2,1.3-3.2,2.3c-0.9,1-1.7,2.2-2.3,3.7c-0.6,1.5-0.9,3.1-0.9,5c0,3.7,0.8,6.6,2.4,8.5
					c1.5,1.9,4,2.8,7.5,2.8c3.6,0,6.1-0.9,7.6-2.8c1.6-2,2.4-4.8,2.4-8.5c0-1.9-0.3-3.5-0.9-5c-0.6-1.5-1.3-2.7-2.3-3.7
					c-0.9-1-2-1.8-3.2-2.3C912.7,471.3,911.5,471,910.2,471z"/>
				<path class="st5" d="M910.7,452.5c1.3,0,2.6,0,4.1,0.1c1.4,0,2.9,0.2,4.4,0.3c1.5,0.2,2.9,0.4,4.3,0.7c1.4,0.3,2.7,0.6,3.8,1.1
					c2.3,0.9,4.4,2.2,6.3,3.8c1.8,1.6,3.4,3.6,4.7,6c1.3,2.4,2.3,5.1,3,8.3c0.7,3.2,1,6.8,1,10.8c0,5.9-0.7,10.9-2.2,15.1
					c-1.5,4.1-3.6,7.4-6.2,10c-2.7,2.5-5.9,4.4-9.6,5.5c-3.7,1.1-7.9,1.7-12.4,1.7h-3.4c-4.5,0-8.6-0.6-12.4-1.7
					c-3.8-1.1-7-3-9.6-5.5c-2.7-2.5-4.7-5.9-6.2-10c-1.5-4.1-2.2-9.1-2.2-15.1c0-8,1.4-14.4,4.1-19.1c2.7-4.7,6.4-7.9,11-9.8
					c1.2-0.5,2.6-0.9,4.1-1.1c1.5-0.3,3-0.5,4.6-0.6c1.6-0.1,3.1-0.2,4.6-0.3C908,452.6,909.4,452.5,910.7,452.5 M910.2,496.1
					c4.2,0,7.2-1.2,9.1-3.5c1.9-2.3,2.8-5.6,2.8-9.8c0-2.1-0.3-4-1-5.7s-1.6-3.1-2.7-4.3s-2.4-2.1-3.8-2.7c-1.4-0.6-2.9-1-4.5-1
					c-1.5,0-3,0.3-4.4,1c-1.4,0.6-2.7,1.6-3.8,2.7c-1.1,1.2-2,2.6-2.7,4.3s-1,3.6-1,5.7c0,4.2,0.9,7.5,2.8,9.8
					C903.1,495,906.1,496.1,910.2,496.1 M910.7,448.5c-1.3,0-2.8,0-4.4,0.1c-1.6,0.1-3.3,0.2-4.9,0.3c-1.7,0.2-3.3,0.4-4.9,0.7
					c-1.7,0.3-3.4,0.8-4.8,1.4c-5.5,2.1-9.8,6-13,11.5c-3.1,5.3-4.6,12.4-4.6,21.1c0,6.4,0.8,11.9,2.5,16.4
					c1.7,4.7,4.1,8.6,7.2,11.5c3.1,3,6.9,5.1,11.2,6.4c4.1,1.2,8.7,1.9,13.5,1.9h3.4c4.9,0,9.5-0.6,13.6-1.9
					c4.3-1.3,8.1-3.5,11.2-6.4c3.1-3,5.5-6.8,7.2-11.5c1.6-4.5,2.5-10.1,2.5-16.4c0-4.3-0.4-8.2-1.1-11.6c-0.8-3.5-1.9-6.7-3.4-9.4
					c-1.5-2.8-3.4-5.1-5.6-7c-2.2-1.9-4.7-3.4-7.4-4.5c-1.4-0.5-2.9-1-4.6-1.3c-1.5-0.3-3.1-0.5-4.6-0.7c-1.6-0.2-3.2-0.3-4.7-0.4
					C913.5,448.6,912,448.5,910.7,448.5L910.7,448.5z M910.2,492.1c-4.3,0-5.5-1.5-6-2c-1.3-1.6-2-4.1-2-7.3c0-1.6,0.2-3,0.7-4.3
					c0.5-1.2,1.1-2.2,1.9-3.1c0.7-0.8,1.6-1.4,2.5-1.8c0.9-0.4,1.8-0.6,2.8-0.6c1,0,2,0.2,2.9,0.6c0.9,0.4,1.8,1,2.5,1.8
					c0.8,0.8,1.4,1.8,1.9,3.1c0.5,1.2,0.7,2.7,0.7,4.3c0,3.2-0.7,5.7-2,7.3C915.8,490.6,914.6,492.1,910.2,492.1L910.2,492.1z"/>
			</g>
			<g>
				<path class="st4" d="M981.6,517.8c-4.7,0-9-0.6-12.9-1.8c-4-1.2-7.5-3.2-10.4-6c-2.9-2.7-5.1-6.4-6.7-10.8
					c-1.6-4.3-2.3-9.6-2.3-15.7c0-6.3,0.8-11.6,2.4-15.8c1.6-4.3,4-7.8,7-10.4c3-2.6,6.7-4.4,10.8-5.4c4-1,8.5-1.5,13.4-1.5
					c3.9,0,7.4,0.2,10.5,0.6c3.1,0.4,5.7,1,7.7,1.6l0.6,0.2l0.4,0.6c0.4,0.7,0.8,1.6,1.1,3c0.2,1.1,0.4,2.4,0.6,3.8
					c0.2,1.4,0.3,2.8,0.4,4.4c0.1,1.6,0.1,3.1,0.1,4.6c0,1.4-0.1,2.8-0.2,3.9c-0.1,1.3-0.3,2.3-0.5,3.1l-0.7,2.2l-2.1-1
					c-1.4-0.6-2.7-1.4-3.9-2.3c-1-0.7-2.1-1.4-3.3-2.1c-1.1-0.6-2.3-1.1-3.8-1.6c-1.4-0.4-3.1-0.6-5.1-0.6c-1.4,0-2.8,0.3-4.2,0.8
					c-1.3,0.5-2.6,1.2-3.6,2.2c-1,1-1.9,2.2-2.6,3.7c-0.6,1.5-1,3.2-1,5.2c0,4,0.9,7,2.6,8.7c1.7,1.8,4,2.6,7,2.6
					c1.5,0,3-0.2,4.5-0.6c1.6-0.4,3.2-0.9,4.7-1.5c1.6-0.6,3.1-1.2,4.5-1.7c1.5-0.6,2.9-1.1,4.2-1.4l1.3-0.3l0.8,1.1
					c0.6,0.9,1.1,2.3,1.4,4.4c0.3,1.8,0.4,3.7,0.5,5.9c0.1,2.1,0,4.3-0.1,6.5c-0.2,2.3-0.5,4.2-1,5.8l-0.3,0.9l-0.8,0.4
					c-1,0.5-2.2,1-3.8,1.5c-1.5,0.5-3.2,1-5.1,1.4c-1.8,0.4-3.8,0.8-5.9,1C986,517.7,983.8,517.8,981.6,517.8z"/>
				<path class="st5" d="M982.9,452.5c3.8,0,7.3,0.2,10.2,0.6c3,0.4,5.4,0.9,7.3,1.6c0.3,0.4,0.6,1.2,0.8,2.3
					c0.2,1.1,0.4,2.3,0.6,3.6c0.1,1.3,0.3,2.8,0.4,4.3c0.1,1.5,0.1,3,0.1,4.4c0,1.4-0.1,2.7-0.2,3.8c-0.1,1.1-0.2,2-0.4,2.7
					c-1.3-0.6-2.5-1.3-3.6-2.1c-1.1-0.8-2.2-1.5-3.4-2.2c-1.2-0.7-2.6-1.3-4.2-1.7c-1.6-0.5-3.5-0.7-5.7-0.7c-1.6,0-3.2,0.3-4.8,0.9
					c-1.6,0.6-3,1.5-4.3,2.6c-1.3,1.2-2.3,2.6-3,4.3c-0.8,1.7-1.1,3.7-1.1,6c0,4.6,1,8,3.1,10.1c2.1,2.1,4.9,3.2,8.5,3.2
					c1.7,0,3.4-0.2,5-0.7c1.7-0.4,3.3-1,4.9-1.6c1.6-0.6,3.1-1.2,4.6-1.8c1.4-0.6,2.7-1,3.9-1.3c0.4,0.6,0.8,1.8,1,3.5
					c0.2,1.7,0.4,3.6,0.5,5.7c0.1,2.1,0,4.2-0.1,6.3c-0.1,2.1-0.4,3.9-0.9,5.4c-0.9,0.4-2.1,0.9-3.6,1.4c-1.4,0.5-3,0.9-4.8,1.3
					c-1.8,0.4-3.7,0.7-5.7,1c-2,0.3-4.1,0.4-6.2,0.4c-4.5,0-8.6-0.6-12.4-1.7c-3.8-1.1-7-3-9.6-5.5c-2.7-2.5-4.7-5.9-6.2-10
					c-1.5-4.1-2.2-9.1-2.2-15.1c0-6.1,0.8-11.1,2.3-15.1c1.5-4,3.7-7.2,6.5-9.5c2.8-2.4,6.1-4,10-5
					C973.9,453,978.2,452.5,982.9,452.5 M982.9,448.5c-5,0-9.7,0.5-13.9,1.5c-4.5,1.1-8.4,3-11.6,5.8c-3.3,2.8-5.9,6.6-7.6,11.2
					c-1.7,4.4-2.6,10-2.6,16.5c0,6.4,0.8,11.9,2.5,16.4c1.7,4.7,4.1,8.6,7.2,11.5c3.1,3,6.9,5.1,11.2,6.4c4.1,1.2,8.7,1.9,13.5,1.9
					c2.3,0,4.6-0.1,6.7-0.4c2.1-0.3,4.2-0.6,6.1-1.1c1.9-0.4,3.7-0.9,5.3-1.5c1.6-0.5,2.9-1.1,4-1.6l1.6-0.8l0.5-1.7
					c0.5-1.8,0.9-3.8,1-6.3c0.2-2.2,0.2-4.5,0.1-6.7c-0.1-2.2-0.3-4.2-0.5-6.1c-0.4-2.4-0.9-4-1.7-5.2l-1.6-2.3l-2.7,0.7
					c-1.4,0.3-2.9,0.9-4.5,1.5c-1.4,0.6-2.9,1.1-4.4,1.7c-1.5,0.5-3,1-4.6,1.4c-1.3,0.4-2.7,0.5-4,0.5c-2.5,0-4.3-0.7-5.6-2
					c-1.7-1.7-2-4.9-2-7.3c0-1.7,0.3-3.2,0.8-4.4c0.5-1.2,1.2-2.2,2.1-3c0.9-0.8,1.8-1.4,3-1.8c1.2-0.4,2.3-0.6,3.5-0.6
					c1.8,0,3.4,0.2,4.6,0.5c1.3,0.4,2.4,0.8,3.3,1.4c1.1,0.6,2.1,1.3,3.1,2c1.3,0.9,2.7,1.8,4.2,2.5l4.2,1.9l1.3-4.4
					c0.3-0.9,0.5-2.1,0.6-3.5c0.1-1.2,0.2-2.6,0.2-4.1c0-1.5,0-3.1-0.1-4.7c-0.1-1.6-0.2-3.1-0.4-4.5c-0.2-1.5-0.4-2.8-0.6-4
					c-0.3-1.6-0.8-2.8-1.4-3.7l-0.8-1.1l-1.3-0.4c-2.1-0.7-4.8-1.3-8.1-1.7C990.5,448.8,986.9,448.5,982.9,448.5L982.9,448.5z"/>
			</g>
			<g>
				<path class="st4" d="M1027.8,516.5c-1.5,0-3-0.1-4.5-0.2c-2.4-0.2-4.6-0.5-6.5-1.1l-0.6-0.2l-0.4-0.5c-0.5-0.7-0.9-1.4-1.2-2
					l0-0.1l0-0.1c-0.4-2-0.7-5.3-0.9-9.9c-0.2-4.5-0.3-10.2-0.3-16.9c0-3.4,0.1-6.2,0.2-8.5c0.1-2.3,0.4-4.5,0.7-6.5
					c0-0.6,0.2-1.2,0.6-1.7l0.3-0.4l0.5-0.2c0.5-0.2,1-0.4,1.7-0.5c-0.5-0.1-1-0.2-1.5-0.3l-1-0.3l-0.4-1c-0.7-2-1.3-4.4-1.5-7.1
					c-0.3-2.7-0.2-5.2,0.2-7.6l0.2-1.2l1.1-0.4c1.5-0.5,3.2-0.9,5.4-1.2c2.1-0.3,4.3-0.5,6.6-0.5c0.8,0,1.5,0,2.3,0
					c1.5,0,2.9,0.1,4.4,0.2c2.2,0.2,4.1,0.5,5.6,1.1l1.1,0.4l0.2,1.2c0.2,1.2,0.2,2.5,0.2,3.8c0,1.3-0.1,2.7-0.2,4
					c-0.1,1.4-0.3,2.7-0.5,4c-0.2,1.3-0.5,2.4-0.7,3.5l-0.3,1.2l-0.8,0.2c0.2,0.1,0.4,0.1,0.5,0.2l0.5,0.2l0.3,0.4
					c0.4,0.5,0.6,1,0.8,1.6c0.6,2.7,1.2,5.7,1.7,9.1c0.5,3.3,0.9,6.9,1.2,10.4c0.3,3.6,0.6,7.1,0.8,10.7c0.2,3.5,0.4,6.8,0.5,9.9
					c0,1.3-0.3,2.4-0.9,3.3l-0.3,0.4l-0.5,0.2c-1.4,0.7-3.2,1.3-5.4,1.7c-2.1,0.4-4.3,0.7-6.7,0.8
					C1029.5,516.4,1028.7,516.5,1027.8,516.5z"/>
				<path class="st5" d="M1028.8,450c1.4,0,2.8,0,4.2,0.1c2,0.1,3.7,0.5,5.1,1c0.1,1.1,0.2,2.3,0.2,3.6c0,1.3,0,2.6-0.1,3.8
					c-0.1,1.3-0.3,2.5-0.5,3.8c-0.2,1.2-0.5,2.3-0.7,3.3c-1.4,0.3-3.1,0.5-4.9,0.6c-1.5,0.1-3.1,0.2-4.6,0.2c-0.3,0-0.6,0-0.9,0
					c-1.9,0-3.7-0.1-5.5-0.3c-1.8-0.2-3.4-0.5-4.7-0.8c-0.7-1.9-1.2-4.1-1.4-6.6s-0.2-4.9,0.2-7c1.3-0.4,3-0.8,5.1-1.1
					c2-0.3,4.2-0.4,6.4-0.5C1027.4,450,1028.1,450,1028.8,450 M1029,468.4c0.8,0,1.7,0,2.5,0.1c1.4,0.1,2.6,0.2,3.6,0.4
					c1.1,0.2,1.9,0.4,2.5,0.6c0.2,0.2,0.3,0.5,0.4,0.8c0.6,2.6,1.2,5.6,1.7,8.9c0.5,3.3,0.9,6.8,1.2,10.3c0.3,3.6,0.6,7.1,0.8,10.6
					c0.2,3.5,0.4,6.8,0.5,9.8c0,0.8-0.2,1.6-0.6,2.1c-1.2,0.6-2.8,1.2-4.8,1.6c-2,0.4-4.1,0.6-6.4,0.7c-0.8,0-1.6,0.1-2.5,0.1
					c-1.4,0-2.9-0.1-4.3-0.2c-2.3-0.2-4.3-0.5-6.1-1c-0.4-0.5-0.7-1-0.8-1.4c-0.4-1.9-0.7-5.1-0.9-9.6c-0.2-4.5-0.3-10.1-0.3-16.8
					c0-3.4,0.1-6.2,0.2-8.4c0.1-2.3,0.4-4.4,0.7-6.4c0-0.3,0.1-0.5,0.2-0.7c0.7-0.3,1.6-0.5,2.7-0.7c1.1-0.2,2.4-0.3,3.8-0.4
					c1.4-0.1,2.8-0.2,4.3-0.2C1027.8,468.4,1028.4,468.4,1029,468.4 M1028.8,446c-0.8,0-1.5,0-2.3,0c-2.3,0.1-4.6,0.3-6.8,0.6
					c-2.3,0.3-4.2,0.7-5.8,1.2l-2.2,0.7l-0.4,2.3c-0.5,2.5-0.6,5.3-0.3,8.1c0.3,2.8,0.8,5.4,1.6,7.6l0.5,1.2
					c-0.4,0.7-0.7,1.5-0.8,2.3c-0.3,2.1-0.6,4.3-0.7,6.7c-0.1,2.3-0.2,5.2-0.2,8.7c0,6.7,0.1,12.4,0.3,17c0.2,4.8,0.5,8.2,1,10.3
					l0,0.2l0.1,0.2c0.3,0.9,0.8,1.8,1.5,2.6l0.8,1l1.3,0.3c2.1,0.6,4.4,0.9,6.9,1.1c1.5,0.1,3.1,0.2,4.6,0.2c0.9,0,1.8,0,2.6-0.1
					c2.4-0.1,4.8-0.4,7-0.8c2.4-0.5,4.3-1.1,5.9-1.9l0.9-0.5l0.6-0.9c0.8-1.3,1.3-2.7,1.3-4.4v-0.1l0-0.1c-0.1-3.1-0.3-6.4-0.5-9.9
					c-0.2-3.6-0.5-7.2-0.8-10.7c-0.3-3.6-0.7-7.1-1.2-10.5c-0.5-3.4-1.1-6.5-1.7-9.2c-0.2-0.9-0.6-1.7-1.1-2.4l0.1-0.5
					c0.3-1.1,0.5-2.3,0.8-3.6c0.2-1.3,0.4-2.7,0.5-4.2c0.1-1.4,0.2-2.8,0.2-4.2c0-1.5-0.1-2.8-0.3-4.1l-0.3-2.4l-2.3-0.8
					c-1.7-0.6-3.7-1-6.2-1.2C1031.9,446,1030.3,446,1028.8,446L1028.8,446z"/>
			</g>
			<g>
				<path class="st4" d="M1067.3,517.7c-3.3,0-6.1-0.9-8.2-2.5c-2.2-1.7-3.6-4-4.1-6.9c-0.3-1.7-0.6-3.7-0.7-5.9
					c-0.2-2.1-0.3-4.4-0.4-6.8c-0.1-2.3-0.2-4.6-0.2-6.9c0-2.3-0.1-4.3-0.1-6.2c0-1.3,0-2.6,0-3.7c0-1.1,0-2.2,0-3.2
					c0-1.1,0-2.1,0-3.2c0-0.6,0-1.3,0-1.9c-0.7-0.3-1.3-0.8-1.8-1.5c-0.7-0.9-1.2-2.1-1.5-3.3c-0.3-1.2-0.5-2.4-0.6-3.6
					c-0.1-1.2-0.1-2.1-0.1-2.8c0-1.2,0.1-2.2,0.3-3.1c0.2-1.2,0.7-2.2,1.5-3c0.7-0.8,1.7-1.3,2.9-1.7c1.1-0.3,2.4-0.5,4-0.5
					c2,0,4,0,5.9,0.1c2,0.1,4.1,0.2,6.1,0.5c3,0.3,6.2,0.6,9.2,0.9c3.2,0.3,6.4,0.7,9.5,1.4c4.1,0.9,7.7,2.3,10.6,4.2
					c2.9,1.9,5.3,4.3,7.1,6.9c1.8,2.7,3.1,5.6,3.9,8.8c0.8,3.1,1.2,6.4,1.2,9.7c0,4.2-0.7,8.1-2.1,11.5c-1.4,3.3-3.2,6.3-5.5,8.9
					c-2.3,2.5-5,4.7-8,6.5c-3,1.7-6.1,3.2-9.4,4.2c-3.2,1.1-6.6,1.9-9.9,2.4C1073.5,517.4,1070.2,517.7,1067.3,517.7z M1079.2,472.3
					c-0.4,0-0.9,0.1-1.2,0.3c-0.3,0.2-0.5,0.7-0.7,1.3c-0.3,0.9-0.5,2.1-0.5,3.6c-0.1,1.6-0.1,3.5-0.1,5.7c0,4.3,0.3,7.5,0.9,9.7
					c0.5,1.8,1.3,2,2,2c1,0,2-0.3,3-0.8c1.1-0.6,2-1.4,2.9-2.5c0.9-1.1,1.6-2.5,2.2-4.1c0.5-1.6,0.8-3.4,0.8-5.4
					c0-3.3-0.8-5.6-2.4-7.2C1084.3,473.1,1082.1,472.3,1079.2,472.3z"/>
				<path class="st5" d="M1058.1,452.9c2,0,3.9,0,5.9,0.1c1.9,0,3.9,0.2,5.9,0.4c3.1,0.3,6.2,0.6,9.3,0.9c3.1,0.2,6.2,0.7,9.3,1.4
					c3.9,0.8,7.2,2.2,9.9,4c2.7,1.8,4.9,3.9,6.6,6.4c1.7,2.5,2.9,5.2,3.6,8.1c0.7,3,1.1,6,1.1,9.3c0,4-0.6,7.6-1.9,10.7
					c-1.3,3.1-3,5.9-5.2,8.3c-2.2,2.4-4.7,4.4-7.5,6.1c-2.9,1.7-5.9,3-9,4.1c-3.1,1-6.3,1.8-9.6,2.3c-3.3,0.5-6.3,0.7-9.3,0.7
					c-2.9,0-5.2-0.7-7-2.1c-1.8-1.4-2.9-3.3-3.4-5.7c-0.3-1.6-0.5-3.5-0.7-5.7c-0.2-2.1-0.3-4.4-0.4-6.7c-0.1-2.3-0.2-4.6-0.2-6.9
					c0-2.3-0.1-4.3-0.1-6.1c0-1.3,0-2.6,0-3.7c0-1.1,0-2.2,0-3.2s0-2.1,0-3.2c0-1.1,0-2.3,0-3.6c-0.1,0-0.1,0-0.2,0
					c-0.9,0-1.5-0.3-2-1c-0.5-0.7-1-1.6-1.2-2.7c-0.3-1-0.4-2.1-0.5-3.2c-0.1-1.1-0.1-2-0.1-2.7c0-1,0.1-1.9,0.2-2.7
					c0.1-0.8,0.5-1.4,1-2s1.2-0.9,2-1.2C1055.6,453.1,1056.8,452.9,1058.1,452.9 M1079.5,496.8c1.3,0,2.7-0.4,4-1.1
					c1.3-0.7,2.5-1.7,3.5-3.1s1.9-2.9,2.5-4.7c0.6-1.8,0.9-3.8,0.9-6.1c0-3.8-1-6.7-3-8.6c-2-1.9-4.7-2.9-8.1-2.9
					c-1,0-1.9,0.2-2.5,0.7c-0.6,0.5-1.1,1.3-1.4,2.3c-0.3,1.1-0.5,2.4-0.6,4c-0.1,1.6-0.1,3.6-0.1,5.8c0,4.5,0.3,7.9,0.9,10.2
					C1076.1,495.6,1077.4,496.8,1079.5,496.8 M1058.1,448.9c-1.8,0-3.3,0.2-4.6,0.6c-1.5,0.5-2.8,1.2-3.7,2.2c-1,1.1-1.7,2.4-2,4
					c-0.2,1-0.3,2.2-0.3,3.5c0,0.8,0,1.8,0.1,3c0.1,1.4,0.3,2.7,0.6,4c0.4,1.5,1,2.9,1.9,4c0.4,0.6,0.9,1,1.4,1.4c0,0.3,0,0.5,0,0.8
					c0,1.1,0,2.2,0,3.3c0,1,0,2,0,3.1c0,1.1,0,2.3,0,3.8c0,1.9,0,4,0.1,6.2c0,2.3,0.1,4.7,0.2,7c0.1,2.4,0.2,4.7,0.4,6.8
					c0.2,2.3,0.4,4.3,0.8,6.1c0.6,3.4,2.3,6.1,4.8,8.1c2.5,2,5.7,3,9.5,3c3.1,0,6.4-0.3,9.8-0.8c3.5-0.5,6.9-1.3,10.2-2.5
					c3.4-1.1,6.7-2.6,9.8-4.4c3.2-1.9,6.1-4.2,8.5-6.9c2.5-2.7,4.5-5.9,5.9-9.5c1.5-3.6,2.2-7.7,2.2-12.2c0-3.5-0.4-7-1.2-10.2
					c-0.8-3.4-2.3-6.6-4.2-9.4c-2-2.9-4.5-5.4-7.7-7.5c-3.1-2.1-6.9-3.6-11.3-4.5c-3.2-0.7-6.5-1.2-9.8-1.5
					c-3.1-0.2-6.1-0.5-9.2-0.9c-2.1-0.3-4.2-0.4-6.2-0.5C1062.1,448.9,1060.1,448.9,1058.1,448.9L1058.1,448.9z M1079.5,492.8
					c0-0.1-0.1-0.3-0.2-0.5c-0.4-1.3-0.8-4-0.8-9.1c0-2.1,0-4,0.1-5.5c0.1-1.6,0.3-2.6,0.5-3.1c0-0.1,0.1-0.2,0.1-0.2
					c2.3,0,4,0.6,5.3,1.8c1.2,1.2,1.8,3.1,1.8,5.7c0,1.8-0.2,3.4-0.7,4.8c-0.5,1.4-1.1,2.6-1.8,3.6c-0.7,0.9-1.5,1.6-2.3,2
					C1080.8,492.6,1080.2,492.8,1079.5,492.8L1079.5,492.8z"/>
			</g>
			<g>
				<path class="st4" d="M1132.4,515.5c-1,0-2,0-3.1-0.1c-1.9-0.2-3.9-0.5-5.8-0.8c-1.9-0.4-3.7-0.9-5.3-1.4c-1.8-0.6-3.1-1.3-4.2-2
					l-0.8-0.6v-1c0-0.7,0.1-1.5,0.3-2.4c0.1-0.8,0.3-1.6,0.5-2.4c0.2-0.8,0.4-1.7,0.6-2.5c0.2-0.8,0.4-1.4,0.5-2
					c0.7-3.3,1.7-7,2.7-11c1.1-4.1,2.3-8.3,3.7-12.4c1.4-4.1,3-8.1,4.7-11.7c1.8-3.8,3.8-6.9,6-9.2c0.9-0.9,2-1.7,3.5-2.3
					c1.3-0.5,2.7-1,4.3-1.3c1.6-0.3,3.2-0.6,4.9-0.7c1.7-0.2,3.4-0.2,5.1-0.2c1.2,0,2.6,0.1,4.2,0.3c1.6,0.2,3.2,0.6,4.8,1
					c1.6,0.5,3.2,1.2,4.7,2c1.6,0.9,2.9,2.1,3.9,3.6c1.2,1.7,2.3,3.8,3.5,6.1c1.1,2.3,2.2,4.9,3.2,7.7c1,2.7,2,5.7,3,8.7
					c1,3.1,1.8,6.1,2.6,9.1c0.8,3,1.6,6,2.2,9c0.7,2.9,1.3,5.6,1.8,8.2c0.1,0.3,0.2,0.7,0.3,1.1c0.2,0.7,0.3,1.4,0.2,2l-0.1,0.5
					l-0.3,0.4c-0.8,1.1-2.2,1.9-4.4,2.5c-1.8,0.5-3.9,0.9-6.2,1.2c-1.9,0.2-3.8,0.3-5.8,0.3c-0.4,0-0.8,0-1.2,0
					c-2.4-0.1-4.4-0.3-6.1-0.7l-1-0.3l-0.4-1c-0.5-1.4-1.1-2.9-1.8-4.3c-0.7-1.6-1.3-3.1-1.7-4.6c-0.2-0.8-0.4-1-0.5-1.1
					c-0.2-0.2-0.5-0.4-0.8-0.5c-0.5-0.2-1.2-0.3-2-0.3c-1,0-2.2-0.1-3.6-0.1c-0.7,0-1.5,0-2.5,0c-0.3,0-0.6,0-0.9,0
					c-0.6,0-1.1,0-1.7,0c-0.8,0-1.6,0.1-2.2,0.2c-0.2,0-0.3,0.1-0.4,0.1c-0.2,0.2-0.3,0.4-0.5,0.6c-0.1,0.2-0.3,0.4-0.4,0.7
					c-0.2,0.3-0.3,0.8-0.5,1.3c-0.2,0.6-0.5,1.4-0.8,2.3c-0.3,0.8-0.5,1.6-0.7,2.3l-0.5,1.8c-0.2,0.6-0.3,1.1-0.5,1.5
					c-0.2,0.6-0.5,1.2-0.8,1.7l-0.5,0.8l-1,0.1C1134.1,515.5,1133.3,515.5,1132.4,515.5z M1145.2,485.5c0.4,0.1,0.8,0.1,1.2,0.1
					l0.2,0c0.9,0,1.8,0,2.6,0c1.2,0,2.2-0.1,3-0.2c0.5-0.1,0.9-0.2,1.1-0.2c-0.1-0.7-0.3-1.6-0.6-2.9c-0.3-1.5-0.7-3-1.1-4.6
					c-0.4-1.5-1-2.8-1.6-3.9c-0.2-0.4-0.5-0.7-0.7-0.8c-0.1,0.1-0.3,0.3-0.5,0.7c-0.6,1-1.1,2.3-1.5,3.7c-0.5,1.5-0.9,3.1-1.3,4.6
					C1145.6,483.6,1145.4,484.7,1145.2,485.5C1145.2,485.5,1145.2,485.5,1145.2,485.5z"/>
				<path class="st5" d="M1150.1,453.2c1.1,0,2.5,0.1,4,0.3c1.5,0.2,3,0.5,4.5,1c1.5,0.4,2.9,1,4.3,1.8c1.4,0.8,2.4,1.7,3.2,2.9
					c1.1,1.6,2.2,3.6,3.3,5.9c1.1,2.3,2.1,4.8,3.1,7.5c1,2.7,2,5.6,2.9,8.6c0.9,3,1.8,6,2.6,9c0.8,3,1.6,6,2.2,8.9
					c0.7,2.9,1.3,5.6,1.8,8.1c0.1,0.4,0.2,0.8,0.3,1.2c0.1,0.4,0.2,0.8,0.1,1.2c-0.5,0.7-1.6,1.3-3.3,1.8c-1.7,0.5-3.7,0.9-5.9,1.1
					c-1.8,0.2-3.7,0.3-5.5,0.3c-0.4,0-0.7,0-1.1,0c-2.2,0-4.1-0.3-5.7-0.7c-0.5-1.5-1.2-3-1.8-4.5c-0.7-1.5-1.2-2.9-1.6-4.3
					c-0.2-0.8-0.5-1.5-0.9-1.9c-0.4-0.4-1-0.8-1.6-1c-0.7-0.2-1.5-0.4-2.5-0.4c-1,0-2.2-0.1-3.7-0.1c-0.7,0-1.5,0-2.4,0
					c-0.3,0-0.6,0-0.9,0c-0.6,0-1.2,0-1.8,0c-0.9,0-1.7,0.1-2.4,0.3c-0.7,0.1-1.2,0.3-1.5,0.6c-0.2,0.3-0.5,0.6-0.7,0.9
					c-0.2,0.3-0.4,0.6-0.6,1c-0.2,0.4-0.4,0.9-0.6,1.5c-0.2,0.6-0.5,1.4-0.9,2.4c-0.3,0.9-0.5,1.7-0.7,2.4c-0.2,0.7-0.4,1.3-0.5,1.8
					c-0.1,0.5-0.3,1-0.4,1.4c-0.1,0.4-0.3,0.9-0.6,1.3c-0.7,0.1-1.4,0.1-2.2,0.1c-0.9,0-1.9,0-2.9-0.1c-1.9-0.2-3.7-0.4-5.5-0.8
					c-1.8-0.4-3.5-0.8-5.1-1.4c-1.6-0.5-2.8-1.1-3.7-1.8c0-0.6,0.1-1.3,0.2-2c0.1-0.8,0.3-1.6,0.5-2.4s0.4-1.6,0.6-2.4
					c0.2-0.8,0.4-1.4,0.5-2c0.7-3.3,1.6-6.9,2.7-11c1.1-4.1,2.3-8.1,3.7-12.2c1.4-4.1,3-7.9,4.7-11.5c1.7-3.6,3.6-6.5,5.7-8.7
					c0.7-0.7,1.6-1.4,2.8-1.8c1.2-0.5,2.5-0.9,4-1.2c1.5-0.3,3-0.6,4.7-0.7S1148.4,453.2,1150.1,453.2 M1146.4,487.7
					c0.1,0,0.2,0,0.2,0c0.9,0,1.7,0,2.6,0c1.3,0,2.4-0.1,3.3-0.2c0.9-0.1,1.5-0.3,2-0.5c0.4-0.2,0.7-0.5,0.9-0.7
					c0.1-0.3,0.1-0.6,0-0.9c-0.1-0.6-0.4-1.7-0.7-3.3c-0.3-1.6-0.7-3.1-1.2-4.8c-0.5-1.6-1.1-3.1-1.8-4.3c-0.7-1.2-1.6-1.8-2.6-1.8
					c-0.7,0-1.4,0.6-2.1,1.7c-0.6,1.2-1.2,2.5-1.7,4.1c-0.5,1.6-0.9,3.1-1.3,4.7c-0.4,1.6-0.6,2.8-0.8,3.6c-0.2,1.2,0,1.9,0.8,2.1
					C1144.8,487.5,1145.6,487.7,1146.4,487.7 M1150.1,449.2c-1.7,0-3.5,0.1-5.2,0.2c-1.8,0.2-3.5,0.4-5.1,0.8
					c-1.7,0.4-3.3,0.9-4.7,1.4c-1.7,0.7-3.1,1.7-4.1,2.8c-2.3,2.5-4.5,5.8-6.4,9.8c-1.8,3.7-3.4,7.7-4.8,11.9
					c-1.4,4.1-2.7,8.4-3.8,12.5c-1.1,4-2,7.8-2.7,11.1c-0.1,0.6-0.3,1.2-0.5,2c-0.2,0.8-0.4,1.7-0.6,2.5c-0.2,0.8-0.3,1.7-0.5,2.4
					c-0.2,1-0.3,1.9-0.3,2.8v2l1.7,1.2c1.2,0.9,2.7,1.6,4.7,2.3c1.7,0.6,3.6,1.1,5.6,1.5c1.9,0.4,4,0.7,6,0.9
					c1.1,0.1,2.2,0.2,3.2,0.2c0.9,0,1.8,0,2.6-0.1l2-0.2l1-1.7c0.4-0.7,0.7-1.4,1-2.1c0.2-0.5,0.3-1,0.5-1.6l0.3-1l0.2-0.8
					c0.2-0.6,0.4-1.3,0.7-2.2c0.3-0.9,0.6-1.7,0.8-2.3c0.2-0.6,0.4-0.9,0.5-1.1c0.1-0.2,0.2-0.3,0.2-0.4c0.5-0.1,1-0.1,1.6-0.2
					c0.5,0,1.1,0,1.6,0c0.3,0,0.5,0,0.8,0c0.9,0,1.8,0,2.5,0c1.3,0,2.5,0,3.5,0.1c0.7,0,1.1,0.1,1.3,0.2c0,0,0,0,0,0.1l0,0.1l0,0.1
					c0.4,1.6,1.1,3.2,1.8,4.9c0.6,1.4,1.2,2.8,1.7,4.2l0.7,2l2,0.5c1.8,0.5,4,0.7,6.6,0.8c0.4,0,0.8,0,1.2,0c2,0,4-0.1,6-0.3
					c2.4-0.3,4.6-0.7,6.5-1.2c2.7-0.8,4.4-1.8,5.5-3.3l0.6-0.8l0.1-1c0.1-0.9,0-1.9-0.2-2.8c-0.1-0.4-0.2-0.7-0.3-1
					c-0.5-2.5-1.2-5.3-1.8-8.1c-0.7-3-1.4-6-2.3-9c-0.8-3-1.7-6.1-2.7-9.2c-1-3.1-2-6-3-8.8c-1-2.8-2.1-5.4-3.3-7.8
					c-1.2-2.5-2.4-4.6-3.6-6.4c-1.1-1.7-2.7-3.1-4.6-4.2c-1.6-0.9-3.3-1.6-5.1-2.2c-1.7-0.5-3.4-0.9-5.1-1.1
					C1152.8,449.3,1151.4,449.2,1150.1,449.2L1150.1,449.2z M1147.7,483.6c0.1-0.3,0.2-0.7,0.3-1.1c0.3-1.5,0.8-2.9,1.2-4.4
					c0.1-0.2,0.1-0.4,0.2-0.6c0.1,0.3,0.2,0.6,0.3,0.9c0.5,1.5,0.8,3,1.1,4.4c0.1,0.3,0.1,0.6,0.2,0.9c-0.5,0-1.1,0-1.7,0
					C1148.7,483.6,1148.2,483.6,1147.7,483.6L1147.7,483.6z"/>
			</g>
		</g>
	</g>
</g>
</svg>
