<?xml version="1.0" encoding="utf-8"?>
<!-- Generator: Adobe Illustrator 24.0.0, SVG Export Plug-In . SVG Version: 6.00 Build 0)  -->
<svg version="1.1" id="Livello_1" xmlns="http://www.w3.org/2000/svg" xmlns:xlink="http://www.w3.org/1999/xlink" x="0px" y="0px"
	 viewBox="0 0 1417.3 1417.3" style="enable-background:new 0 0 1417.3 1417.3;" xml:space="preserve">
<style type="text/css">
	.st0{fill:#DDDFDF;}
	.st1{fill:#523E5E;}
	.st2{fill:#523E5E;stroke:#4FBDAA;stroke-width:31.8112;stroke-miterlimit:10;}
</style>
<path class="st0" d="M1230.3,1377.6H187.1c-81.4,0-147.4-66-147.4-147.4V187.1c0-81.4,66-147.4,147.4-147.4h1043.2
	c81.4,0,147.4,66,147.4,147.4v1043.2C1377.6,1311.6,1311.6,1377.6,1230.3,1377.6z"/>
<g>
	<path class="st1" d="M520.6,1298c-45.5,0-105.2-5.7-131.5-33c-3.1-3.2-11.3-11.8-28.2-70.2c-11.1-38.7-22.3-86.8-31.4-135.6
		c-14.3-76.3-36.5-223.8-24.5-354.4c10.4-113.6,44.4-191.6,100.9-232.1l0.1-0.1c2.4-1.7,54.1-37.4,142.3-43.7
		c-16.1-49.7-42.9-160.7,6.9-236.3c31.5-47.7,86.9-72.4,164.8-73.3c1.5,0,2.9,0,4.3,0c74,0,126.6,23.1,156.3,68.6
		c49.8,76.3,17.9,193.3-0.5,245.6c28.8,1,76.6,5.2,121,20.3c71.4,24.4,110.8,69.2,114,129.8c3.4,63.6-5.4,111-26,140.7
		c-16.8,24.3-35.9,28.8-40.9,29.6c-2.5,0.4-17.4,2.8-39.7,2.8c-23.2,0-58.9-2.7-97.2-15.5c-9-3-17-4.5-23.9-4.5
		c-10,0-16.9,3.1-21.8,9.7c-3.8,5.3-5,11-5.2,11.9l-0.2,1.5l-0.1,0c-0.2,1.8-0.2,7.4,4.3,13.1c7.9,9.8,26.3,16.2,51.9,17.8
		c45.3,2.9,92.3,14.7,128.9,32.3c45.2,21.7,69.5,49.5,70.5,80.4c1.5,48.8-6.6,222.9-25.6,274.2c-3.6,9.7-6,19.5-8.4,29
		c-4.6,18.7-9,36.3-21.1,50.6c-13.8,16.3-34.9,24.3-64.4,24.3c-64.5,0-164-6.8-175.5-7.6c-0.1,0-0.3,0-0.4,0
		c-5.9,0-26.3-1.6-40.6-21.9c-20.7-29.5-17-81.7,11.2-159.6l0.3-0.7l0.3-0.7c3.8-8.6,12.9-36.5,4.5-51.7c-1.4-2.5-5.6-10-23.3-12.5
		c-33.2-4.6-60.3-6.8-82.8-6.8c-43.8,0-70.8,8.6-76.2,24.2c-0.2,1.3-0.5,6.9,5.7,26.7c5.5,17.5,14.5,41.8,28.7,79.8
		c15.1,40.5,14.7,79.1-1.1,105.8c-8.3,14.1-25.2,31.9-58.4,36.7C568,1296.3,543.8,1298,520.6,1298z M587.8,704.8
		c-2.5,3.2-5.2,16.9-7.9,40.8c-1.8,15.9,0.4,27.9,6.3,34.5c5.5,6.2,13.3,6.8,13.4,6.8l0.3,0l0.3,0c0.8,0,80.3,3.3,123.3,6
		c0.5,0,1,0,1.5,0c4.1,0,11.8,0,17.3-19.2c4.6-16,5-37,5.2-50.9l0-1.1c0.2-9.1-3.5-11.7-4.9-12.6c-1.9-1.3-4.1-2-4.7-2.1l-67.8-4.2
		h-65.6C598.1,703.2,590,703.8,587.8,704.8z"/>
	<path class="st1" d="M724.3,138.4c266.2,0,128,314.1,128,314.1s4.1-0.2,11.2-0.2c47,0,225.9,8.2,232.5,132.3
		c7.6,142.9-50.9,150.5-50.9,150.5s-14.2,2.6-36.6,2.6c-23.6,0-56.2-2.8-91.2-14.5c-11.7-3.9-21.5-5.5-29.9-5.5
		c-40.7,0-45.9,38-45.9,38s-10.8,48.7,73.6,54.1c84.5,5.4,180,44.4,181.5,94.2c1.5,49.8-7,220-24.4,267c-17.4,47-8.7,91.4-75.9,91.4
		c-67.1,0-175.1-7.6-175.1-7.6s-0.3,0-0.8,0c-7.6,0-66.2-4.8-11.4-156c0,0,36.8-81.2-33.6-91c-27-3.7-57.3-7-85.4-7
		c-45.3,0-84.7,8.5-94.4,37.3c-4.5,13.5,6,42.2,34.7,119.1c18.2,48.8,15.2,108.3-44.4,117c-19.2,2.8-42.1,4.5-65.3,4.5
		c-48.7,0-98.7-7.4-117.8-27.2c-28.2-29.2-178.1-625.9,14.1-763.5c0,0,58.5-41.2,158.1-41.2c0,0-126.7-305.4,145.1-308.6
		C721.5,138.4,722.9,138.4,724.3,138.4 M725,812.1c40.6,0,41.2-59.8,41.7-90c0.5-30.9-26.5-34.1-26.5-34.1l-69.3-4.3h-66.9
		c-31.7,2.2-36.5,2.2-43,59.8c-7,62,38.4,62.5,38.4,62.5s79.6,3.2,122.9,6C723.2,812.1,724.1,812.1,725,812.1 M724.3,100.2
		L724.3,100.2c-1.6,0-3.1,0-4.6,0c-43,0.5-80.3,8-110.8,22.4c-29.3,13.8-52.7,33.8-69.7,59.5c-17.1,26-27.5,57.6-30.7,93.9
		c-2.4,27.3-0.9,57.3,4.5,89.4c2.9,17.2,6.7,33.1,10.4,46.9c-27.4,3.7-53.9,10.3-78.4,19.6c-30.7,11.7-48.2,23.7-50.1,25l-0.1,0.1
		l-0.1,0.1c-33.2,23.8-59.4,59.3-77.9,105.6c-15.5,38.8-25.9,85.9-30.8,140.2c-5,54.1-4.7,115.9,0.8,183.7
		c4.6,56.5,12.7,115.7,24,176c9.3,49.3,20.6,98.1,31.9,137.3c5.2,18,10.1,33.2,14.7,45.2c6.3,16.7,11.6,26.3,18.1,33
		c14.6,15.1,36.7,25.6,67.5,31.9c22.1,4.5,48.9,7,77.7,7c24.4,0,48.9-1.7,70.7-4.9c40.7-5.9,61.7-28.2,72.1-45.9
		c18.8-31.7,19.7-76.3,2.6-122.2c-12.2-32.7-20.6-55.3-26.1-72.1c-4.1-12.4-5.9-19.3-6.6-23c1.4-1.1,4.1-2.6,8.5-4.1
		c7.7-2.6,22.3-5.8,48.1-5.8c21.6,0,47.9,2.2,80.2,6.6c6,0.8,8.7,2.3,9.2,2.8c0.5,0.8,2,5.8,0.2,16.2c-1.7,9.5-5,17.5-5.4,18.5
		l-0.7,1.5l-0.4,1.2c-15.7,43.4-24,78.9-25.3,108.4c-1.2,28.3,4.3,51.5,16.4,68.7c13.1,18.7,34.1,30,56,30
		c14.4,1,112.2,7.6,176.2,7.6c35.5,0,61.3-10.2,78.9-31c14.9-17.7,20.1-38.3,25-58.3c2.3-9.4,4.5-18.3,7.7-27
		c9-24.3,16.3-72.4,21.6-142.8c3.9-51.5,6.1-109.8,5.2-138.6c-0.4-15-5.7-37.7-28-60.5c-13.3-13.6-31.2-25.9-53.3-36.5
		c-38.8-18.6-88.4-31.1-136-34.1c-26.8-1.7-36.5-8.5-38.2-10.6c0.4-1.1,1-2.6,1.9-3.6c0.4-0.4,1.3-1.6,6.1-1.6
		c3.3,0,9.1,0.6,17.8,3.5c40.8,13.6,78.7,16.4,103.2,16.4c23.4,0,39.3-2.5,42.8-3.1c8.8-1.4,33-8,53.5-37.6
		c23.1-33.3,32.9-84.7,29.3-152.6c-1-19.8-5.6-38.4-13.4-55.4c-7.3-15.7-17.5-30.1-30.3-42.8c-20.8-20.5-48.7-36.9-83.1-48.6
		c-35.2-12-71.7-17.5-101.4-19.9c4.3-14.3,8.7-30.9,12.3-48.7c6.7-33.5,9.3-64.7,7.7-92.9c-2.2-37.8-12.1-70.4-29.3-96.8
		c-16.2-24.8-38.7-44-66.9-57C800.6,107,765.1,100.2,724.3,100.2L724.3,100.2z M605.2,721.9h64.4l58.8,3.7c-0.2,9.8-0.5,21.4-2.1,32
		c-1.3,8.7-3,13.7-4.2,16.2c-42.2-2.6-113-5.5-120.6-5.8c-0.4-0.1-0.8-0.3-1-0.4c-0.7-0.7-3.1-6.3-1.6-19.8
		c1.4-12.5,2.6-20.6,3.6-25.7C603.4,722,604.3,721.9,605.2,721.9L605.2,721.9z"/>
</g>
<path class="st2" d="M1096.6,904.1c-1.5-49.8-97.1-88.8-181.5-94.2c-84.5-5.4-73.6-54.1-73.6-54.1s7.6-55.2,75.8-32.5
	c68.2,22.7,127.8,11.9,127.8,11.9s58.5-7.6,50.9-150.5c-7.6-142.9-243.7-132.1-243.7-132.1S992,135.2,720.1,138.4
	C448.3,141.7,575,447.1,575,447.1c-99.6,0-158.1,41.2-158.1,41.2c-192.2,137.5-42.2,734.2-14.1,763.5c28.2,29.2,123.5,31.4,183,22.7
	c59.6-8.7,62.6-68.2,44.4-117c-28.7-76.9-39.2-105.6-34.7-119.1c15.7-46.7,109.4-40.1,179.8-30.3c70.4,9.7,33.6,91,33.6,91
	c-58.5,161.4,12.2,155.9,12.2,155.9s108,7.6,175.1,7.6s58.5-44.4,75.9-91.4C1089.6,1124.1,1098.1,953.9,1096.6,904.1z M722.2,812
	c-43.3-2.7-122.9-6-122.9-6s-45.4-0.5-38.4-62.5c6.5-57.7,11.3-57.7,43-59.8h66.9l69.3,4.3c0,0,27.1,3.2,26.5,34.1
	C766.1,753,765.6,814.7,722.2,812z"/>
</svg>
