<?xml version="1.0" encoding="utf-8"?>
<!-- Generator: Adobe Illustrator 24.0.0, SVG Export Plug-In . SVG Version: 6.00 Build 0)  -->
<svg version="1.1" id="Livello_1" xmlns="http://www.w3.org/2000/svg" xmlns:xlink="http://www.w3.org/1999/xlink" x="0px" y="0px"
	 viewBox="0 0 1417.3 1417.3" style="enable-background:new 0 0 1417.3 1417.3;" xml:space="preserve">
<style type="text/css">
	.st0{fill:#DDDFDF;}
	.st1{fill:#523E5E;stroke:#F7941D;stroke-width:12.9923;stroke-miterlimit:10;}
	.st2{fill:#4FBDAA;}
	.st3{fill:#523E5E;}
	.st4{fill:#523E5E;stroke:#4FBDAA;stroke-width:31.8112;stroke-miterlimit:10;}
</style>
<path class="st0" d="M1230.3,1377.6H187.1c-81.4,0-147.4-66-147.4-147.4V187.1c0-81.4,66-147.4,147.4-147.4h1043.2
	c81.4,0,147.4,66,147.4,147.4v1043.2C1377.6,1311.6,1311.6,1377.6,1230.3,1377.6z"/>
<g>
	<g>
		<path class="st1" d="M1240.5,193.4v1030.5c0,12.7-10.3,23-23,23h-156.4c-12.7,0-23-10.3-23-23V193.4c0-12.7,10.3-23,23-23h156.4
			C1230.2,170.4,1240.5,180.7,1240.5,193.4z"/>
		<g>
			<g>
				<g>
					<path class="st0" d="M1139.5,1203c-14.3,0-25.9-2.5-34.4-7.4c-8.7-5-14.8-12-18.2-20.6c-0.9-2.3-1.6-4.9-2.1-7.6
						c-0.5-2.6-0.9-5.4-1.1-8.1c-0.3-2.7-0.4-5.4-0.5-8.1c-0.1-2.7-0.1-5.2-0.1-7.5c0-2.2,0-4.6,0.1-7.1c0.1-2.5,0.3-5.1,0.6-7.8
						c0.3-2.6,0.7-5.2,1.2-7.7c0.5-2.6,1.2-5,2-7.1c1.8-4.3,4.2-8.3,7.1-11.7c3-3.5,6.8-6.4,11.1-8.9c4.3-2.4,9.4-4.2,15.2-5.5
						c5.7-1.2,12.1-1.9,19.2-1.9c10.5,0,19.6,1.3,27,4c7.5,2.7,13.7,6.6,18.4,11.5c4.7,4.9,8.2,10.9,10.2,17.8
						c2,6.7,3.1,14.2,3.1,22.3v5.8c0,8-1,15.5-3.1,22.2c-2.1,6.9-5.5,12.9-10.3,17.9c-4.7,4.9-10.9,8.8-18.4,11.5
						C1159.1,1201.6,1150,1203,1139.5,1203z M1138.2,1127.4c-3.2,0-6.1,0.5-8.6,1.5c-2.5,1-4.6,2.3-6.3,3.9c-1.7,1.6-3,3.4-3.9,5.4
						c-0.9,2-1.3,4.1-1.3,6.3c0,2.2,0.4,4.2,1.3,6.2c0.9,2.1,2.2,3.8,3.9,5.4c1.7,1.6,3.8,2.9,6.3,3.9c2.5,1,5.4,1.5,8.6,1.5
						c6.4,0,11.3-1.4,14.6-4.1c3.2-2.6,4.8-6.8,4.8-12.9c0-6.2-1.6-10.4-4.8-13C1149.5,1128.8,1144.6,1127.4,1138.2,1127.4z"/>
					<path class="st2" d="M1139.5,1089.5c10.1,0,18.8,1.3,25.8,3.8c7.1,2.5,12.8,6.1,17.1,10.7c4.4,4.6,7.5,10,9.5,16.4
						c1.9,6.4,2.9,13.5,2.9,21.3v5.8c0,7.7-1,14.8-2.9,21.2c-1.9,6.4-5.1,11.9-9.5,16.5c-4.4,4.6-10.1,8.1-17.1,10.7
						c-7.1,2.5-15.7,3.8-25.8,3.8c-13.8,0-24.7-2.3-32.7-7c-8-4.7-13.6-11-16.7-18.9c-0.8-2.1-1.5-4.4-2-7c-0.5-2.5-0.8-5.1-1.1-7.8
						c-0.3-2.7-0.4-5.3-0.5-7.9c-0.1-2.6-0.1-5.1-0.1-7.4c0-2.2,0-4.5,0.1-7c0.1-2.5,0.3-4.9,0.6-7.5c0.3-2.5,0.7-5,1.1-7.4
						c0.5-2.4,1.1-4.6,1.8-6.5c1.6-4,3.8-7.5,6.5-10.7c2.7-3.2,6.2-5.9,10.2-8.1c4.1-2.2,8.8-4,14.3-5.1
						C1126.5,1090,1132.7,1089.5,1139.5,1089.5 M1138.2,1164.9c7.2,0,12.8-1.6,16.8-4.9c4-3.3,6-8.4,6-15.5c0-7.2-2-12.4-6-15.7
						c-4-3.3-9.6-4.9-16.8-4.9c-3.6,0-6.9,0.6-9.8,1.7c-2.9,1.1-5.4,2.7-7.4,4.6c-2,1.9-3.6,4.1-4.7,6.5c-1.1,2.5-1.6,5-1.6,7.7
						c0,2.6,0.6,5.2,1.6,7.6c1.1,2.5,2.7,4.6,4.7,6.5c2,1.9,4.5,3.4,7.4,4.6C1131.3,1164.4,1134.6,1164.9,1138.2,1164.9
						 M1139.5,1082.6c-7.3,0-14,0.6-19.9,1.9c-6.1,1.3-11.5,3.3-16.1,5.8c-4.7,2.6-8.8,5.9-12.1,9.6c-3.2,3.7-5.8,8-7.7,12.6l0,0
						l0,0c-0.9,2.3-1.6,4.9-2.2,7.7c-0.5,2.6-0.9,5.2-1.2,7.9c-0.3,2.7-0.5,5.4-0.6,8c-0.1,2.6-0.1,5-0.1,7.2c0,2.3,0,4.9,0.1,7.6
						c0.1,2.8,0.3,5.6,0.5,8.4c0.3,2.8,0.7,5.7,1.2,8.4c0.5,3,1.3,5.8,2.3,8.3c3.7,9.4,10.3,16.9,19.7,22.3
						c9.1,5.2,21.2,7.9,36.2,7.9c10.9,0,20.4-1.4,28.1-4.2c8-2.9,14.7-7.1,19.8-12.4c5.1-5.3,8.8-11.8,11.1-19.2
						c2.1-7,3.2-14.8,3.2-23.2v-5.8c0-8.4-1.1-16.2-3.2-23.2c-2.3-7.4-6-13.8-11-19.2c-5.1-5.3-11.7-9.5-19.8-12.4
						C1159.9,1084,1150.4,1082.6,1139.5,1082.6L1139.5,1082.6z M1138.2,1158.1c-2.8,0-5.2-0.4-7.3-1.2c-2.1-0.8-3.8-1.9-5.2-3.2
						c-1.4-1.3-2.4-2.7-3.1-4.3c-0.7-1.6-1-3.1-1-4.8c0-1.7,0.3-3.4,1.1-4.9c0.7-1.6,1.8-3,3.1-4.3c1.4-1.3,3.1-2.4,5.2-3.2
						c2.1-0.8,4.6-1.2,7.3-1.2c5.5,0,9.7,1.1,12.5,3.4c0.9,0.7,3.5,2.8,3.5,10.3c0,7.4-2.6,9.5-3.5,10.2
						C1148,1156.9,1143.8,1158.1,1138.2,1158.1L1138.2,1158.1z"/>
				</g>
				<g>
					<path class="st0" d="M1117,1084.4c-4,0-7.9-0.2-11.4-0.5c-4.4-0.4-8.3-1.1-11.4-2.1c-4-1.3-6.6-3.3-7.6-6.1
						c-0.6-1.5-1.1-3.4-1.5-5.8c-0.4-2.3-0.7-4.8-0.9-7.5c-0.3-2.7-0.4-5.7-0.5-8.7c-0.1-3-0.2-5.8-0.3-8.6
						c-0.1-2.8-0.1-5.4-0.1-7.7v-5.6c0-3.7,0.2-8,0.6-12.9c0.4-4.9,1.1-9.7,2.2-14.2l0.4-1.6l1.4-0.7c2.3-1.1,5-2.1,8.3-2.8
						c3.1-0.7,6.4-1.2,9.8-1.4c1.4-0.1,2.8-0.1,4.2-0.1c1.9,0,3.9,0.1,5.7,0.3c3.3,0.3,6.2,1,8.6,1.9l0.8,0.3l0.6,0.7
						c1.1,1.3,1.7,2.9,1.9,4.5c0.1,1.2,0.2,2.4,0.2,3.6c0,2.8-0.4,5.7-1.1,8.5c-0.6,2.6-1.4,5.3-2.1,7.8c-0.7,2.5-1.4,5-2,7.5
						c-0.6,2.3-0.9,4.6-0.9,7c0,2.3,0.2,3.4,0.4,3.9c0.3,0.1,0.9,0.2,1.9,0.2c1.8,0,3.3-0.3,4.3-0.9c0.2-0.1,0.7-0.9,0.7-3.1
						c0-3.1-0.3-6.4-1-9.8c-0.7-3.9-1-7.7-0.7-11.2l0.1-0.8l0.4-0.7c1.3-2.1,3.5-3.5,6.9-4.4c2.7-0.7,5.7-1.1,8.9-1.2
						c0.4,0,0.8,0,1.3,0c2.8,0,5.6,0.3,8.3,0.8c3.4,0.6,6.1,1.6,8.2,3l1.4,0.9l0.2,1.6c0.2,1.9,0.1,3.9-0.3,6
						c-0.3,1.8-0.7,3.7-1.2,5.5c-0.4,1.8-0.8,3.7-1.3,5.5c-0.4,1.7-0.6,3.3-0.6,4.8c0,0.8,0,1.3,0.1,1.8c0.1,0,0.1,0,0.2,0
						c2,0,4-0.2,6-0.7c2.3-0.5,4.8-1.1,7.5-1.7c2.7-0.6,5.7-1.1,8.8-1.4c2-0.2,4.1-0.4,6.3-0.4c1.5,0,3,0.1,4.6,0.2l2,0.1l0.9,1.9
						c1.1,2.4,2,5.2,2.7,8.2c0.7,3,1.1,6.2,1.2,9.4c0.1,3.1,0,6.3-0.3,9.5c-0.3,3.3-0.9,6.3-1.7,9.1l-0.2,0.8l-0.6,0.6
						c-1,1-2.4,1.7-4.7,2.3c-1.8,0.5-4.2,1-7.4,1.4c-3.1,0.4-6.8,0.8-11.5,1c-4.6,0.3-10.1,0.4-16.5,0.4c-2.3,0-5.4,0.1-9.4,0.4
						c-4.1,0.3-8.6,0.5-13.3,0.7c-4.8,0.2-9.8,0.4-14.7,0.4C1118.9,1084.4,1117.9,1084.4,1117,1084.4z"/>
					<path class="st2" d="M1110.1,1001.5c1.8,0,3.6,0.1,5.4,0.3c3,0.3,5.6,0.9,7.7,1.7c0.7,0.8,1.1,1.8,1.2,2.8
						c0.1,1,0.2,2.1,0.2,3.2c0,2.5-0.3,5.1-1,7.7c-0.6,2.6-1.3,5.1-2.1,7.7c-0.8,2.5-1.5,5.1-2.1,7.7c-0.6,2.6-1,5.2-1,7.8
						c0,2.9,0.3,4.8,1,5.9c0.6,1.1,2.2,1.6,4.8,1.6c2.5,0,4.5-0.5,6-1.4c1.6-0.9,2.3-3,2.3-6.1c0-3.3-0.3-6.8-1-10.4
						c-0.7-3.6-0.9-7.1-0.6-10.3c0.8-1.3,2.4-2.2,4.8-2.9c2.5-0.6,5.2-1,8.1-1.1c0.4,0,0.8,0,1.2,0c2.6,0,5.1,0.2,7.7,0.7
						c3,0.6,5.3,1.4,7,2.5c0.2,1.5,0.1,3.2-0.3,4.9c-0.3,1.8-0.7,3.6-1.1,5.4c-0.4,1.8-0.8,3.7-1.3,5.6c-0.4,1.9-0.6,3.7-0.6,5.5
						c0,1.9,0.1,3.3,0.4,4.1s1.4,1.1,3.3,1.1c2.3,0,4.6-0.3,6.9-0.8c2.3-0.5,4.7-1.1,7.4-1.7c2.6-0.5,5.5-1,8.5-1.4
						c1.8-0.2,3.8-0.3,5.9-0.3c1.4,0,2.9,0.1,4.4,0.2c1,2.2,1.8,4.7,2.5,7.5c0.6,2.8,1,5.8,1.1,8.8c0.1,3,0,6-0.3,9.1
						c-0.3,3-0.8,5.9-1.6,8.5c-0.5,0.5-1.6,1-3.2,1.5c-1.6,0.5-4,0.9-6.9,1.3c-3,0.4-6.7,0.8-11.2,1c-4.5,0.3-10,0.4-16.3,0.4
						c-2.4,0-5.6,0.1-9.6,0.4c-4,0.3-8.4,0.5-13.2,0.7c-4.8,0.2-9.7,0.4-14.7,0.4c-0.9,0-1.8,0-2.7,0c-4,0-7.7-0.2-11.1-0.5
						c-4.2-0.4-7.8-1-10.7-2c-3-0.9-4.8-2.3-5.5-4.1c-0.5-1.3-0.9-3-1.3-5.1c-0.3-2.2-0.6-4.6-0.9-7.3c-0.3-2.7-0.4-5.5-0.5-8.5
						c-0.1-3-0.2-5.8-0.3-8.6c-0.1-2.7-0.1-5.3-0.1-7.6c0-2.3,0-4.2,0-5.6c0-3.6,0.2-7.8,0.6-12.6c0.4-4.8,1.1-9.3,2.1-13.6
						c2-1,4.5-1.9,7.5-2.5c3-0.7,6-1.1,9.3-1.3C1107.5,1001.5,1108.8,1001.5,1110.1,1001.5 M1110.1,994.6c-1.4,0-2.9,0-4.4,0.1
						c-3.6,0.2-7,0.7-10.3,1.5c-3.5,0.8-6.5,1.8-9,3.1l-2.9,1.4l-0.7,3.1c-1.1,4.6-1.8,9.6-2.3,14.7c-0.4,4.9-0.6,9.4-0.6,13.2v5.6
						c0,2.3,0,5,0.1,7.8c0.1,2.7,0.2,5.6,0.3,8.5c0.1,3.1,0.3,6.1,0.5,8.9c0.3,2.8,0.6,5.4,0.9,7.7c0.4,2.7,1,4.8,1.7,6.6
						c1.5,3.8,4.8,6.5,9.8,8.1c3.4,1.1,7.5,1.8,12.2,2.3c3.6,0.3,7.6,0.5,11.7,0.5c0.9,0,1.9,0,2.8,0c5-0.1,10-0.2,14.8-0.4
						c4.7-0.2,9.2-0.4,13.3-0.7c3.9-0.2,6.9-0.4,9.1-0.4c6.4,0,12-0.1,16.7-0.4c4.8-0.3,8.7-0.6,11.8-1.1c3.3-0.5,5.8-1,7.8-1.5
						c2.9-0.8,4.8-1.8,6.2-3.2l1.2-1.2l0.5-1.7c0.9-3,1.5-6.3,1.8-9.7c0.3-3.4,0.4-6.7,0.3-10c-0.1-3.4-0.6-6.7-1.3-10
						c-0.7-3.3-1.7-6.3-2.9-8.9l-1.7-3.7l-4.1-0.3c-1.7-0.1-3.3-0.2-4.8-0.2c-2.4,0-4.6,0.1-6.7,0.4c-3.2,0.4-6.3,0.9-9.1,1.5
						c-2.7,0.6-5.3,1.1-7.6,1.7c-0.7,0.2-1.3,0.3-2,0.4c0.1-0.7,0.2-1.4,0.4-2.1c0.4-1.9,0.8-3.7,1.3-5.5c0.4-1.9,0.8-3.8,1.2-5.7
						c0.5-2.4,0.6-4.8,0.3-7l-0.4-3.2l-2.7-1.8c-2.5-1.6-5.6-2.7-9.5-3.5c-3-0.6-6-0.8-9-0.8c-0.5,0-0.9,0-1.4,0
						c-3.5,0.1-6.7,0.5-9.6,1.3c-0.9,0.2-1.8,0.5-2.6,0.9c0-0.5,0-1,0-1.5c0-1.4-0.1-2.7-0.2-4c-0.3-2.3-1.2-4.4-2.7-6.2l-1.1-1.4
						l-1.7-0.7c-2.7-1.1-5.9-1.8-9.5-2.2C1114.2,994.7,1112.2,994.6,1110.1,994.6L1110.1,994.6z M1125.3,1040.8c0-0.2,0-0.4,0-0.6
						c0-1.1,0.1-2.3,0.2-3.4c0.1,1.2,0.1,2.3,0.1,3.4c0,0.2,0,0.4,0,0.5C1125.6,1040.8,1125.4,1040.8,1125.3,1040.8L1125.3,1040.8z
						 M1159.6,1038.6C1159.6,1038.6,1159.6,1038.6,1159.6,1038.6L1159.6,1038.6L1159.6,1038.6z"/>
				</g>
				<g>
					<path class="st0" d="M1099.9,932.9c-2.8,0-5-0.1-6.6-0.4c-1.9-0.3-3.3-0.7-4.5-1.3c-1.4-0.7-2.5-1.7-3.2-2.9
						c-0.5-0.8-0.9-1.7-1.3-2.8c-0.4-1-0.8-2.5-1.2-4.7c-0.3-1.9-0.6-4.1-0.8-6.3c-0.3-2.3-0.5-4.5-0.6-6.7
						c-0.1-2.2-0.2-3.9-0.2-5.3c0-5.4,0-11.1,0.1-16.7c0.1-5.7,0.5-11.4,1.2-16.7c0.7-5.5,1.9-10.8,3.7-15.6c1.8-5,4.4-9.5,7.8-13.3
						c3.4-3.8,7.9-6.9,13.2-9.1c5.3-2.2,11.9-3.3,19.6-3.3c6.8,0,12.6,1,17.2,3c4.7,2,8.5,4.7,11.5,7.9c3,3.2,5.2,7,6.7,11.1
						c1.4,3.9,2.4,8,3,12c0.6,3.9,0.9,7.9,0.9,11.7v9.5c0,1.5,0.1,2.7,0.2,3.5c0,0,0,0,0,0.1c0,0,0.1,0,0.2,0
						c0.5,0.1,1.5,0.2,3.3,0.2c1,0,2.2,0,3.6-0.1c1.5-0.1,3.1-0.2,4.8-0.3c1.6-0.1,3.2-0.2,4.7-0.3c1.6-0.1,2.9-0.1,4-0.1
						c2,0,3.6,0.3,5,1l1.2,0.6l0.5,1.3c0.8,2.4,1.5,5.2,1.9,8.3c0.4,3.1,0.7,6.2,0.7,9.2c0,3-0.2,6-0.5,8.7c-0.3,3-0.9,5.4-1.7,7.5
						l-0.4,0.9l-0.8,0.6c-1.7,1.3-3.7,2.2-5.9,2.8c-2,0.6-4.2,0.9-6.5,1.1c-2.2,0.2-4.5,0.3-6.9,0.3h-7c-7.5,0-15.2-0.2-22.6-0.5
						c-7.4-0.3-14.9-0.5-22.3-0.5c-1.4,0-2.8,0-4.1-0.1c-0.2,0-0.4,0-0.7,0c-0.9,0-1.9,0.1-2.8,0.2c-0.7,0.8-1.6,1.5-2.7,2.2
						c-1.2,0.8-2.6,1.5-4.3,2.2C1105.3,932.6,1103,932.9,1099.9,932.9z M1124.5,865.4c-0.8,0-1.7,0.2-2.6,0.5
						c-0.8,0.3-1.4,0.8-2.1,1.6c-0.7,0.9-1.3,2.1-1.8,3.7c-0.5,1.7-0.8,3.9-0.8,6.6c0,2.2,0.1,3.9,0.4,5.2c0.2,0.8,0.5,1.4,0.9,1.8
						c0.5,0.4,1.1,0.7,2.1,0.9c1.3,0.3,3.2,0.4,5.5,0.4c2.3,0,4.1-0.1,5.3-0.3c0.7-0.1,1.1-0.3,1.2-0.4c0.1-0.1,0.3-0.4,0.4-1.4
						c0.2-1.2,0.2-2.9,0.2-5c0-1.4-0.2-3-0.5-4.8c-0.3-1.6-0.8-3.1-1.5-4.5c-0.7-1.2-1.5-2.3-2.7-3.2
						C1127.5,865.8,1126.2,865.4,1124.5,865.4z"/>
					<path class="st2" d="M1127,831.2c6.3,0,11.6,0.9,15.9,2.7c4.2,1.8,7.7,4.2,10.3,7.1c2.7,2.9,4.7,6.2,6,10
						c1.4,3.7,2.3,7.5,2.9,11.3c0.6,3.8,0.8,7.5,0.8,11.2c0,3.6,0,6.8,0,9.5c0,1.7,0.1,3,0.2,4c0.1,1,0.4,1.7,1,2.2
						c0.5,0.5,1.2,0.8,2.2,0.9c0.9,0.1,2.2,0.2,3.8,0.2c1,0,2.3,0,3.8-0.1c1.5-0.1,3.1-0.2,4.8-0.3c1.6-0.1,3.2-0.2,4.8-0.3
						c1.5-0.1,2.8-0.1,3.8-0.1c1.4,0,2.6,0.2,3.4,0.6c0.8,2.2,1.4,4.8,1.8,7.7c0.4,2.9,0.6,5.8,0.6,8.8c0,2.9-0.1,5.7-0.4,8.4
						c-0.3,2.7-0.8,4.9-1.5,6.7c-1.4,1-2.9,1.8-4.8,2.3c-1.8,0.5-3.8,0.8-5.9,1c-2.1,0.2-4.3,0.3-6.7,0.3c-2.3,0-4.7,0-7,0
						c-7.5,0-15-0.2-22.5-0.5c-7.4-0.3-14.9-0.5-22.5-0.5c-1.4,0-2.7,0-4-0.1c-0.3,0-0.5,0-0.8,0c-1.1,0-2.1,0.1-3.2,0.2
						c-0.8,0.1-1.4,0.4-2,1c-0.6,0.6-1.3,1.2-2.2,1.8c-0.9,0.6-2.1,1.2-3.5,1.7c-1.4,0.5-3.5,0.8-6.1,0.8c-2.6,0-4.7-0.1-6.2-0.3
						c-1.5-0.2-2.6-0.5-3.5-1c-0.8-0.4-1.5-1-1.8-1.6c-0.4-0.6-0.7-1.4-1.1-2.3c-0.3-0.8-0.7-2.1-1-3.9c-0.3-1.9-0.6-3.9-0.8-6.2
						c-0.3-2.2-0.4-4.4-0.6-6.5c-0.1-2.1-0.2-3.8-0.2-5.1c0-5.5,0-11.1,0.1-16.7c0.1-5.6,0.5-11.1,1.1-16.4
						c0.7-5.3,1.8-10.3,3.5-14.9c1.6-4.7,4-8.7,7.1-12.2c3.1-3.5,7.1-6.2,12-8.2C1113.6,832.2,1119.7,831.2,1127,831.2
						 M1126.1,889.5c2.5,0,4.5-0.1,5.9-0.4c1.4-0.3,2.4-0.8,3.1-1.5c0.7-0.8,1.1-1.8,1.3-3.2c0.2-1.4,0.3-3.2,0.3-5.4
						c0-1.6-0.2-3.4-0.5-5.4c-0.3-2-1-3.8-1.8-5.5c-0.9-1.7-2.1-3.1-3.7-4.3c-1.6-1.2-3.6-1.8-6-1.8c-1.3,0-2.6,0.3-3.9,0.8
						c-1.3,0.5-2.5,1.4-3.5,2.6c-1,1.2-1.8,2.9-2.5,4.9c-0.6,2-1,4.6-1,7.6c0,2.5,0.2,4.4,0.5,6c0.3,1.5,1,2.7,1.9,3.6
						c0.9,0.8,2.2,1.4,3.7,1.7C1121.5,889.4,1123.5,889.5,1126.1,889.5 M1127,824.3c-8.1,0-15.2,1.2-20.9,3.6
						c-5.8,2.4-10.7,5.8-14.5,10c-3.7,4.1-6.5,9-8.4,14.4c-1.8,5.1-3.1,10.6-3.8,16.3c-0.7,5.5-1.1,11.3-1.2,17.1
						c-0.1,5.7-0.1,11.4-0.1,16.8c0,1.4,0.1,3.2,0.2,5.5c0.1,2.2,0.3,4.6,0.6,6.9c0.3,2.3,0.6,4.5,0.9,6.5c0.4,2.4,0.8,4.1,1.3,5.4
						c0.5,1.3,1,2.4,1.6,3.3c1.1,1.8,2.6,3.2,4.7,4.2c1.5,0.8,3.3,1.3,5.6,1.6c1.8,0.3,4.1,0.4,7.1,0.4c3.4,0,6.2-0.4,8.4-1.2
						c2.1-0.7,3.8-1.6,5.2-2.6c0.8-0.6,1.5-1.2,2.2-1.7c0.4,0,0.9,0,1.3,0c0.2,0,0.4,0,0.6,0c1.3,0,2.8,0.1,4.2,0.1
						c7.4,0,14.8,0.2,22.1,0.5c7.5,0.3,15.2,0.5,22.8,0.5h7c2.5,0,4.9-0.1,7.2-0.3c2.5-0.2,4.9-0.6,7.2-1.2c2.6-0.7,5-1.9,7-3.4
						l1.6-1.2l0.7-1.9c0.9-2.3,1.5-5.1,1.9-8.3c0.3-2.9,0.5-6,0.5-9.1c0-3.2-0.2-6.5-0.7-9.7c-0.5-3.3-1.2-6.3-2.1-8.9l-0.9-2.6
						l-2.5-1.3c-1.8-0.9-4-1.4-6.5-1.4c-1.1,0-2.5,0-4.2,0.1c-1.5,0.1-3.1,0.2-4.7,0.3c-1.7,0.1-3.3,0.2-4.8,0.3
						c-1.4,0.1-2.5,0.1-3.4,0.1c-0.1,0-0.2,0-0.2,0c0-0.1,0-0.2,0-0.4v-9.5c0-4-0.3-8-0.9-12.1c-0.6-4.2-1.7-8.5-3.2-12.7
						c-1.7-4.5-4.1-8.7-7.4-12.2c-3.3-3.6-7.6-6.6-12.7-8.8C1140.5,825.4,1134.2,824.3,1127,824.3L1127,824.3z M1121,882.3
						c-0.2-0.7-0.3-2.1-0.3-4.4c0-2.9,0.3-4.6,0.6-5.6c0.5-1.5,1-2.3,1.2-2.6c0.2-0.2,0.4-0.5,0.7-0.6c0.5-0.2,1-0.3,1.4-0.3
						c0.9,0,1.6,0.1,1.9,0.4c0.8,0.6,1.3,1.2,1.7,2c0.6,1.1,0.9,2.2,1.2,3.5c0.3,1.6,0.4,3,0.4,4.2c0,1.4,0,2.6-0.1,3.5
						c-0.8,0.1-1.9,0.1-3.6,0.1c-2.6,0-4.1-0.2-4.9-0.3C1121.1,882.3,1121,882.3,1121,882.3L1121,882.3z"/>
				</g>
				<g>
					<path class="st0" d="M1101.9,826.9c-0.7,0-1.5,0-2.2-0.1c-1.6-0.1-3.2-0.3-4.7-0.7c-1.6-0.4-3.1-1-4.5-1.8
						c-1.6-0.9-2.9-2-3.9-3.4c-2.2-3-3.3-7.2-3.5-12.8c-0.2-4.9-0.3-11-0.3-18.2c0-4.8,0-9.9,0.1-15.1c0-5.3,0.3-10.6,0.8-15.7
						c0.5-5.1,1.4-10.1,2.6-14.7c1.2-4.8,3.1-9.2,5.5-12.8c2.5-3.8,5.9-6.9,10-9.2c4.1-2.3,9.1-3.4,14.9-3.4c3.9,0,7.4,0.6,10.5,1.8
						c3,1.2,5.7,2.7,8,4.5c2.2,1.7,4.2,3.6,6,5.6c1.6,1.9,3.1,3.7,4.3,5.4c0.8,1.2,1.6,2.2,2.3,3.1c1.2-1.3,2.7-2.8,4.5-4.6
						c1.9-1.9,4.1-4,6.5-6.2c2.5-2.3,5.2-4.5,8-6.5c2.8-2,5.9-3.7,9-5c3.3-1.5,6.7-2.2,10.1-2.2h2.1l1,1.8c1,2,2,4.4,2.8,7.3
						c0.8,2.8,1.4,5.7,1.9,8.8c0.5,3.1,0.8,6.3,0.9,9.4c0.1,3.3-0.1,6.3-0.7,9.2l-0.1,0.6l-0.3,0.5c-1.7,2.9-4.3,5.5-7.6,7.6
						c-3,1.9-6,3.6-9,5c-7.6,3.7-10.9,6.3-12.4,7.8c-1.1,1.1-1.8,1.9-2.1,2.5c0.6-0.1,1.6-0.2,2.9-0.4c2.3-0.3,5-0.7,7.8-0.9
						c2-0.2,3.9-0.3,5.9-0.3c1,0,2,0,2.9,0.1c3.3,0.2,6.1,0.8,8.3,2l1.2,0.6l0.4,1.3c0.7,2.2,1.4,4.8,1.9,7.7
						c0.5,2.9,0.9,5.9,1.2,8.9c0.3,3,0.4,6.1,0.4,9c0,3.1-0.2,5.7-0.7,8l-0.2,1l-0.7,0.7c-0.8,0.8-1.9,1.4-3.4,2
						c-1.1,0.4-2.1,0.7-2.9,0.9l-0.2,0c-1.9,0.4-4.4,0.7-7.5,0.9c-3.1,0.3-6.5,0.5-10.2,0.7c-3.6,0.2-7.6,0.4-11.9,0.5l-12.3,0.4
						c-4.1,0.1-8.1,0.2-11.7,0.3c-3.7,0-6.9,0.1-9.6,0.1h-0.8c-1.2,0-2.4,0-3.5,0.1c-0.2,0.5-0.5,1-0.9,1.6
						c-0.6,1.1-1.6,2.1-2.9,3.1c-1.2,0.9-2.8,1.6-4.8,2.1c-1.8,0.5-4,0.8-6.8,1C1103.4,826.9,1102.7,826.9,1101.9,826.9z
						 M1124.3,762c-1.3,0-3,0.3-4.6,2.9c-1.5,2.5-2.3,5.7-2.3,9.6c0,3.8,0.8,5.1,1,5.4c0,0,0.9,0.9,5.1,0.9c1.9,0,3.5-0.1,4.7-0.2
						c0.9-0.1,1.6-0.3,2.2-0.6c0.1-0.1,0.3-0.2,0.6-0.8c0.2-0.5,0.4-1.5,0.4-3.4c0-1.1-0.2-2.5-0.7-4.1c-0.5-1.7-1.2-3.4-2-5
						c-0.8-1.5-1.7-2.8-2.8-3.8C1125,762,1124.5,762,1124.3,762z"/>
					<path class="st2" d="M1185.6,718.4c0.9,1.8,1.8,4,2.5,6.7c0.8,2.7,1.4,5.5,1.8,8.4c0.5,3,0.7,5.9,0.8,8.9
						c0.1,3-0.1,5.8-0.6,8.4c-1.4,2.5-3.6,4.6-6.5,6.4c-2.9,1.8-5.8,3.4-8.6,4.8c-6.5,3.2-11,6-13.4,8.5c-2.4,2.5-3.6,4.3-3.6,5.5
						c0,1.4,0.2,2.2,0.7,2.5c0.5,0.3,1.2,0.4,2.1,0.4c0.8,0,2.3-0.2,4.6-0.5c2.3-0.3,4.8-0.6,7.6-0.9c1.9-0.2,3.7-0.3,5.6-0.3
						c0.9,0,1.9,0,2.8,0.1c2.8,0.1,5.1,0.7,6.9,1.6c0.7,2,1.3,4.4,1.8,7.2c0.5,2.8,0.9,5.7,1.1,8.6c0.3,3,0.4,5.9,0.4,8.7
						c0,2.8-0.2,5.3-0.6,7.3c-0.4,0.4-1.1,0.8-2.2,1.2c-1,0.4-1.9,0.7-2.5,0.8c-1.8,0.3-4.2,0.6-7.2,0.9c-3,0.3-6.4,0.5-10.1,0.7
						c-3.7,0.2-7.7,0.4-11.8,0.5c-4.1,0.1-8.2,0.3-12.3,0.4c-4.1,0.1-7.9,0.2-11.6,0.3c-3.7,0-6.9,0.1-9.6,0.1h-0.8
						c-1.4,0-2.7,0-3.9,0.1c-1.2,0.1-2,0.6-2.4,1.5c-0.3,0.5-0.6,1.1-1,1.8c-0.4,0.7-1,1.3-1.9,2c-0.9,0.6-2.1,1.2-3.7,1.6
						c-1.6,0.4-3.6,0.7-6.2,0.9c-0.6,0-1.3,0.1-2,0.1s-1.3,0-2-0.1c-1.4-0.1-2.7-0.3-4.1-0.6c-1.3-0.3-2.5-0.8-3.7-1.5
						s-2.1-1.5-2.9-2.5c-1.7-2.4-2.6-6-2.9-10.8c-0.2-4.9-0.3-10.9-0.3-18.1c0-4.8,0-9.9,0.1-15.1c0-5.2,0.3-10.4,0.8-15.4
						c0.5-5,1.3-9.7,2.5-14.2c1.1-4.5,2.8-8.4,5.1-11.8c2.2-3.4,5.2-6.1,8.8-8.1c3.6-2,8-3,13.3-3c3.5,0,6.6,0.5,9.3,1.6
						c2.7,1.1,5.1,2.4,7.2,4c2.1,1.6,3.9,3.3,5.5,5.1c1.6,1.8,2.9,3.5,4.1,5.1c1.1,1.6,2.1,2.9,2.9,4c0.8,1.1,1.5,1.6,2.1,1.6
						c0.3,0,1.1-0.6,2.3-1.9c1.2-1.3,2.8-2.8,4.6-4.7c1.9-1.9,4-3.9,6.4-6.2c2.4-2.2,4.9-4.3,7.6-6.2c2.7-1.9,5.5-3.4,8.4-4.7
						S1182.7,718.4,1185.6,718.4 M1123.5,784.4c2,0,3.7-0.1,5.1-0.3c1.4-0.2,2.6-0.5,3.5-1.1c0.9-0.5,1.6-1.4,2-2.5
						c0.4-1.1,0.6-2.7,0.6-4.6c0-1.4-0.3-3.1-0.8-5.1c-0.5-1.9-1.3-3.8-2.3-5.6c-1-1.8-2.1-3.4-3.4-4.6c-1.3-1.3-2.6-1.9-4.1-1.9
						c-3.1,0-5.6,1.5-7.5,4.6c-1.9,3-2.8,6.9-2.8,11.4c0,3.6,0.6,6.1,1.8,7.5C1117,783.6,1119.6,784.4,1123.5,784.4 M1189.7,711.5
						h-4.2c-3.8,0-7.7,0.8-11.4,2.5c-3.3,1.4-6.5,3.2-9.6,5.4c-2.9,2-5.7,4.3-8.4,6.8c-2.4,2.3-4.6,4.4-6.6,6.3
						c-0.6,0.6-1.2,1.2-1.7,1.7c-1.2-1.7-2.7-3.6-4.3-5.4c-1.9-2.2-4-4.2-6.5-6.1c-2.6-2-5.6-3.7-8.9-5c-3.5-1.4-7.4-2.1-11.8-2.1
						c-6.4,0-12,1.3-16.6,3.8c-4.6,2.5-8.3,6-11.2,10.3c-2.7,4-4.7,8.7-6,13.9c-1.2,4.8-2.1,9.9-2.7,15.2c-0.5,5.2-0.8,10.5-0.9,16
						c0,5.5-0.1,10.4-0.1,15.2c0,7.2,0.1,13.4,0.3,18.4c0.3,6.3,1.6,11,4.1,14.5l0,0.1l0,0.1c1.3,1.8,3,3.2,5,4.4
						c1.7,0.9,3.4,1.6,5.3,2.1c1.7,0.4,3.5,0.7,5.4,0.8c0.8,0,1.7,0.1,2.5,0.1c0.8,0,1.6,0,2.4-0.1c3-0.2,5.5-0.6,7.5-1.1
						c2.4-0.6,4.3-1.5,5.9-2.6c1.7-1.2,3-2.6,3.8-4.1c0.4,0,0.9,0,1.4,0h0.8c2.8,0,6.1,0,9.7-0.1c3.7,0,7.6-0.1,11.7-0.3l2.6-0.1
						l9.7-0.3c4.2-0.1,8.3-0.3,12-0.5c3.7-0.2,7.2-0.4,10.3-0.7c3.3-0.3,5.8-0.6,7.9-1l0.2,0l0.2,0c0.9-0.2,2-0.6,3.3-1.1
						c2-0.7,3.4-1.6,4.6-2.8l1.4-1.4l0.4-2c0.5-2.5,0.8-5.4,0.8-8.7c0-3-0.1-6.1-0.4-9.3c-0.3-3.2-0.7-6.3-1.2-9.3
						c-0.6-3.1-1.2-5.8-2-8.2l-0.9-2.6l-2.4-1.3c-2.7-1.4-5.9-2.2-9.7-2.4c-1,0-2.1-0.1-3.1-0.1c-1.7,0-3.4,0.1-5.1,0.2
						c1.3-0.7,2.8-1.5,4.5-2.4c3.1-1.5,6.2-3.2,9.3-5.1c3.8-2.4,6.7-5.3,8.7-8.7l0.6-1l0.2-1.2c0.6-3.1,0.9-6.4,0.8-9.9
						c-0.1-3.3-0.4-6.6-0.9-9.8c-0.5-3.2-1.2-6.4-2-9.3c-0.9-3.1-1.9-5.7-3.1-8L1189.7,711.5L1189.7,711.5z M1121.1,777.3
						c-0.1-0.5-0.2-1.4-0.2-2.7c0-3.3,0.6-5.9,1.8-7.8c0.4-0.7,0.8-1,1.1-1.2c0.7,0.8,1.4,1.7,2,2.8c0.7,1.4,1.3,2.8,1.7,4.3
						c0.5,1.7,0.6,2.7,0.6,3.2c0,0.6,0,1.1-0.1,1.4c0,0,0,0,0,0c-1.1,0.1-2.6,0.2-4.3,0.2C1122.4,777.5,1121.6,777.4,1121.1,777.3
						L1121.1,777.3z"/>
				</g>
				<g>
					<path class="st0" d="M1139.5,714.2c-14.3,0-25.9-2.5-34.4-7.4c-8.7-5-14.8-12-18.2-20.6c-0.9-2.3-1.6-4.9-2.1-7.6
						c-0.5-2.6-0.9-5.4-1.1-8.1c-0.3-2.7-0.4-5.4-0.5-8.1c-0.1-2.7-0.1-5.2-0.1-7.5c0-2.2,0-4.6,0.1-7.1c0.1-2.5,0.3-5.1,0.6-7.8
						c0.3-2.6,0.7-5.2,1.2-7.7c0.5-2.6,1.2-5,2-7.1c1.8-4.3,4.2-8.3,7.1-11.7c3-3.5,6.7-6.4,11.1-8.9c4.3-2.4,9.4-4.2,15.2-5.5
						c5.7-1.2,12.1-1.9,19.2-1.9c10.5,0,19.6,1.3,27,4c7.5,2.7,13.7,6.6,18.4,11.5c4.7,4.9,8.2,10.9,10.2,17.8
						c2,6.7,3.1,14.2,3.1,22.3v5.8c0,8-1,15.5-3.1,22.2c-2.1,6.9-5.5,12.9-10.3,17.9c-4.7,4.9-10.9,8.8-18.4,11.5
						C1159.1,712.9,1150,714.2,1139.5,714.2z M1138.2,638.6c-3.2,0-6.1,0.5-8.6,1.5c-2.5,1-4.6,2.3-6.3,3.9c-1.7,1.6-3,3.4-3.9,5.4
						c-0.9,2-1.3,4.1-1.3,6.3c0,2.1,0.5,4.2,1.3,6.2c0.9,2.1,2.2,3.8,3.9,5.4c1.7,1.6,3.8,2.9,6.3,3.9c2.5,1,5.4,1.5,8.6,1.5
						c6.4,0,11.3-1.4,14.6-4.1c3.2-2.6,4.8-6.8,4.8-12.9c0-6.2-1.6-10.4-4.8-13C1149.5,640,1144.6,638.6,1138.2,638.6z"/>
					<path class="st2" d="M1139.5,600.7c10.1,0,18.8,1.3,25.8,3.8c7.1,2.5,12.8,6.1,17.1,10.7c4.4,4.6,7.5,10,9.5,16.4
						c1.9,6.4,2.9,13.5,2.9,21.3v5.8c0,7.7-1,14.8-2.9,21.2c-1.9,6.4-5.1,11.9-9.5,16.5c-4.4,4.6-10.1,8.1-17.1,10.7
						c-7.1,2.5-15.7,3.8-25.8,3.8c-13.8,0-24.7-2.3-32.7-7c-8-4.7-13.6-11-16.7-18.9c-0.8-2.1-1.5-4.4-2-7c-0.5-2.5-0.8-5.1-1.1-7.8
						c-0.3-2.7-0.4-5.3-0.5-7.9c-0.1-2.6-0.1-5.1-0.1-7.4c0-2.2,0-4.5,0.1-7c0.1-2.5,0.3-4.9,0.6-7.5c0.3-2.5,0.7-5,1.1-7.4
						c0.5-2.4,1.1-4.6,1.8-6.5c1.6-4,3.8-7.5,6.5-10.7c2.7-3.2,6.2-5.9,10.2-8.1c4.1-2.2,8.8-4,14.3-5.1
						C1126.5,601.3,1132.7,600.7,1139.5,600.7 M1138.2,676.1c7.2,0,12.8-1.6,16.8-4.9c4-3.3,6-8.4,6-15.5c0-7.2-2-12.4-6-15.7
						c-4-3.3-9.6-4.9-16.8-4.9c-3.6,0-6.9,0.6-9.8,1.7c-2.9,1.1-5.4,2.7-7.4,4.6s-3.6,4.1-4.7,6.5c-1.1,2.5-1.6,5-1.6,7.7
						c0,2.6,0.6,5.2,1.6,7.6c1.1,2.5,2.7,4.6,4.7,6.5c2,1.9,4.5,3.4,7.4,4.6C1131.3,675.6,1134.6,676.1,1138.2,676.1 M1139.5,593.8
						c-7.3,0-14,0.7-19.9,1.9c-6.1,1.3-11.5,3.3-16.1,5.8c-4.8,2.6-8.8,5.9-12.1,9.6c-3.2,3.7-5.8,8-7.7,12.6l0,0l0,0
						c-0.9,2.3-1.6,4.9-2.2,7.7c-0.5,2.6-0.9,5.2-1.2,7.9c-0.3,2.7-0.5,5.4-0.6,8c-0.1,2.6-0.1,5-0.1,7.2c0,2.3,0,4.9,0.1,7.6
						c0.1,2.8,0.3,5.6,0.5,8.4c0.3,2.8,0.7,5.7,1.2,8.4c0.5,3,1.3,5.8,2.3,8.3c3.7,9.4,10.3,16.9,19.7,22.3
						c9.1,5.2,21.2,7.9,36.2,7.9c10.9,0,20.4-1.4,28.1-4.2c8-2.9,14.7-7.1,19.8-12.4c5.1-5.3,8.8-11.8,11.1-19.2
						c2.1-7,3.2-14.8,3.2-23.2v-5.8c0-8.4-1.1-16.2-3.2-23.2c-2.3-7.4-6-13.8-11-19.2c-5.1-5.3-11.7-9.5-19.8-12.4
						C1159.9,595.2,1150.4,593.8,1139.5,593.8L1139.5,593.8z M1138.2,669.3c-2.8,0-5.2-0.4-7.3-1.2c-2.1-0.8-3.8-1.9-5.2-3.2
						c-1.4-1.3-2.4-2.7-3.1-4.3c-0.7-1.6-1-3.1-1-4.8c0-1.7,0.3-3.4,1.1-4.9c0.7-1.6,1.8-3,3.1-4.3c1.4-1.3,3.1-2.4,5.2-3.2
						c2.1-0.8,4.6-1.2,7.3-1.2c5.5,0,9.7,1.1,12.5,3.4c0.9,0.7,3.5,2.8,3.5,10.3c0,7.4-2.6,9.5-3.5,10.2
						C1148,668.2,1143.8,669.3,1138.2,669.3L1138.2,669.3z"/>
				</g>
				<g>
					<path class="st0" d="M1139.5,596.1c-10.8,0-19.9-1.4-27.1-4.2c-7.4-2.8-13.3-6.9-17.8-12.1c-4.4-5.2-7.5-11.4-9.2-18.5
						c-1.7-6.9-2.5-14.6-2.5-22.9c0-6.7,0.4-12.8,1-18c0.7-5.3,1.7-9.7,2.8-13.2l0.4-1.1l1-0.6c1.2-0.8,2.8-1.4,5.1-1.8
						c1.9-0.4,4.1-0.7,6.5-1c2.3-0.3,4.9-0.5,7.5-0.6c2.2-0.1,4.3-0.2,6.3-0.2c0.5,0,1,0,1.5,0c2.5,0,4.8,0.2,6.8,0.3
						c2.2,0.2,3.9,0.5,5.3,0.9l3.8,1.1l-1.6,3.6c-1.1,2.4-2.4,4.6-3.9,6.7c-1.3,1.8-2.5,3.6-3.6,5.6c-1,1.8-1.9,4-2.7,6.4
						c-0.7,2.4-1.1,5.3-1.1,8.8c0,2.4,0.4,4.8,1.3,7.1c0.9,2.3,2.1,4.4,3.8,6.2c1.7,1.8,3.8,3.3,6.3,4.4c2.5,1.1,5.5,1.7,8.9,1.7
						c6.9,0,11.9-1.5,14.9-4.4c3-2.9,4.5-6.9,4.5-12.1c0-2.6-0.3-5.2-1-7.8c-0.7-2.8-1.6-5.5-2.6-8.1c-1-2.7-2-5.3-3-7.7
						c-1.1-2.6-1.9-5-2.4-7.2l-0.6-2.3l1.9-1.3c1.6-1.1,4-1.8,7.5-2.4c3-0.4,6.4-0.7,10.1-0.9c1.2,0,2.5-0.1,3.7-0.1
						c2.5,0,5,0.1,7.5,0.3c3.9,0.3,7.2,0.8,10,1.7l1.5,0.4l0.7,1.4c0.8,1.7,1.7,3.8,2.6,6.4c0.9,2.6,1.7,5.5,2.4,8.7
						c0.7,3.2,1.3,6.6,1.8,10.1c0.5,3.6,0.7,7.4,0.7,11.1c0,8-1,15.5-3.1,22.2c-2.1,6.9-5.5,12.9-10.3,17.9
						c-4.7,4.9-10.9,8.8-18.4,11.5C1159.1,594.7,1150,596.1,1139.5,596.1z"/>
					<path class="st2" d="M1171.2,503.9c2.4,0,4.8,0.1,7.2,0.3c3.6,0.3,6.7,0.8,9.3,1.5c0.8,1.6,1.6,3.6,2.4,6.1
						c0.8,2.5,1.6,5.2,2.3,8.3c0.7,3.1,1.2,6.4,1.7,9.8c0.5,3.5,0.7,7,0.7,10.7c0,7.7-1,14.8-2.9,21.2c-1.9,6.4-5.1,11.9-9.5,16.5
						c-4.4,4.6-10.1,8.1-17.1,10.7c-7.1,2.5-15.7,3.8-25.8,3.8c-10.4,0-19-1.3-25.9-3.9c-6.9-2.6-12.3-6.3-16.4-11.1
						c-4.1-4.8-6.9-10.5-8.5-17.1c-1.6-6.6-2.4-14-2.4-22.1c0-6.6,0.3-12.5,1-17.6c0.7-5.1,1.6-9.3,2.7-12.5c0.8-0.5,2.1-1,3.9-1.3
						c1.8-0.4,3.9-0.7,6.2-1c2.3-0.3,4.7-0.5,7.4-0.6c2.1-0.1,4.1-0.2,6.1-0.2c0.5,0,1,0,1.4,0c2.4,0,4.6,0.1,6.5,0.3
						c1.9,0.2,3.5,0.4,4.6,0.8c-1,2.2-2.2,4.2-3.6,6.1c-1.4,1.9-2.6,3.8-3.8,5.9c-1.2,2.1-2.2,4.5-3,7.2c-0.8,2.7-1.2,6-1.2,9.8
						c0,2.8,0.5,5.6,1.5,8.3c1,2.7,2.5,5.2,4.5,7.4c2,2.2,4.5,3.9,7.4,5.2c3,1.3,6.4,2,10.3,2c7.9,0,13.6-1.8,17.3-5.4
						c3.7-3.6,5.5-8.4,5.5-14.5c0-2.9-0.4-5.8-1.1-8.6c-0.8-2.9-1.6-5.7-2.7-8.4c-1-2.7-2-5.3-3-7.8c-1-2.5-1.8-4.7-2.3-6.7
						c1.1-0.8,3.1-1.4,6-1.8c2.9-0.4,6.2-0.7,9.7-0.8C1168.9,503.9,1170.1,503.9,1171.2,503.9 M1171.2,497c-1.3,0-2.6,0-3.8,0.1
						c-3.8,0.1-7.3,0.4-10.4,0.9c-4.1,0.6-6.9,1.5-8.9,2.9l-3.9,2.7l1.2,4.6c0.6,2.3,1.5,4.9,2.6,7.7c1,2.4,2,4.9,2.9,7.6
						c0.9,2.5,1.8,5.2,2.5,7.8c0.6,2.3,0.9,4.6,0.9,6.9c0,4.2-1.1,7.4-3.5,9.6c-2.9,2.8-8.4,3.4-12.5,3.4c-2.9,0-5.4-0.5-7.5-1.4
						c-2.1-0.9-3.8-2.1-5.2-3.6c-1.4-1.5-2.4-3.2-3.1-5.1c-0.7-2-1.1-3.9-1.1-5.9c0-3.1,0.3-5.8,0.9-7.8c0.6-2.2,1.4-4.1,2.4-5.7
						c1.1-1.8,2.2-3.6,3.4-5.3c1.6-2.2,3-4.6,4.2-7.2l3.3-7.1l-7.5-2.3c-1.6-0.5-3.5-0.8-6-1c-2.1-0.2-4.5-0.3-7-0.3
						c-0.5,0-1,0-1.6,0c-2.1,0-4.3,0.1-6.5,0.2c-2.7,0.2-5.3,0.4-7.7,0.7c-2.5,0.3-4.8,0.6-6.8,1.1c-2.7,0.6-4.7,1.3-6.3,2.3
						l-1.9,1.3l-0.8,2.2c-1.3,3.7-2.2,8.2-3,13.8c-0.7,5.4-1.1,11.6-1.1,18.5c0,8.6,0.9,16.6,2.6,23.7c1.9,7.7,5.2,14.4,9.9,20
						c4.8,5.6,11.2,10,19.1,13.1c7.6,2.9,17.1,4.4,28.3,4.4c10.9,0,20.4-1.4,28.1-4.2c8-2.9,14.7-7.1,19.8-12.4
						c5.1-5.3,8.8-11.8,11.1-19.2c2.1-7,3.2-14.8,3.2-23.2c0-3.9-0.3-7.8-0.8-11.6c-0.5-3.6-1.1-7.1-1.8-10.4
						c-0.7-3.3-1.6-6.4-2.5-9.1c-0.9-2.7-1.8-4.9-2.7-6.8l-1.3-2.8l-2.9-0.9c-3.1-0.9-6.6-1.5-10.8-1.8
						C1176.4,497.1,1173.8,497,1171.2,497L1171.2,497z"/>
				</g>
				<g>
					<path class="st0" d="M1091.9,494.3c-2.7,0-5.3-0.2-7.8-0.7l-2-0.4l-0.6-1.9c-0.8-2.5-1.5-5.6-2-9.3c-0.5-3.6-0.8-7.4-0.9-11.3
						c-0.1-3.9-0.1-7.7,0.2-11.3c0.3-3.8,0.9-7,1.9-9.6l0.7-1.9l2-0.3c2-0.3,4.2-0.4,6.6-0.4c2.3,0,4.6,0.1,6.9,0.3
						c2.3,0.2,4.6,0.5,6.8,0.9c2.2,0.4,4.2,0.8,5.9,1.3l2.1,0.5l0.3,1.4c0.1-0.3,0.2-0.6,0.3-0.9l0.3-0.8l0.7-0.6
						c0.8-0.7,1.8-1.1,2.8-1.3c4.5-1.1,9.8-2.1,15.5-2.9c5.7-0.8,11.8-1.5,17.9-2c6.1-0.5,12.2-1,18.3-1.4c6-0.4,11.7-0.7,16.9-0.8
						l0.1,0c2.1,0,4,0.5,5.6,1.6l0.7,0.5l0.4,0.8c1.3,2.4,2.2,5.4,3,9.2c0.7,3.6,1.2,7.4,1.3,11.4c0.2,4,0.1,8-0.2,12
						c-0.3,4.1-0.9,7.8-1.8,11.2l-0.3,1.1l-0.9,0.7c-1.2,0.9-2.3,1.6-3.5,2l-0.2,0.1l-0.2,0c-3.4,0.7-9,1.2-17.1,1.6
						c-7.8,0.3-17.5,0.5-28.9,0.5c-5.8,0-10.7-0.1-14.6-0.3c-3.9-0.2-7.7-0.6-11.2-1.2c-1.1-0.1-2.1-0.4-3-1.1l-0.7-0.5l-0.4-0.8
						c-0.4-0.8-0.7-1.8-0.9-2.8c-0.2,0.9-0.4,1.8-0.6,2.6l-0.4,1.8l-1.7,0.6c-3.5,1.3-7.6,2.2-12.1,2.6
						C1095.3,494.3,1093.6,494.3,1091.9,494.3z"/>
					<path class="st2" d="M1184.8,444.1c1.4,0,2.7,0.3,3.7,1c1.1,2.1,2,4.9,2.7,8.3c0.7,3.4,1.1,7.1,1.3,10.9
						c0.2,3.8,0.1,7.7-0.2,11.6c-0.3,3.9-0.9,7.4-1.7,10.5c-0.8,0.7-1.6,1.1-2.4,1.4c-3.2,0.7-8.7,1.2-16.5,1.5
						c-7.8,0.3-17.4,0.5-28.8,0.5c-5.7,0-10.6-0.1-14.5-0.3c-3.9-0.2-7.6-0.6-11-1.2c-0.5,0-0.9-0.1-1.3-0.4
						c-0.5-1.2-0.9-2.7-1.3-4.7c-0.3-1.9-0.6-4.1-0.8-6.5c-0.2-2.4-0.3-4.8-0.4-7.3c-0.1-2.5-0.1-4.9,0.1-7.2
						c0.1-2.3,0.3-4.4,0.6-6.2c0.3-1.8,0.7-3.2,1.1-4.3c0.4-0.3,0.9-0.5,1.4-0.6c4.5-1.1,9.6-2,15.3-2.9c5.7-0.8,11.6-1.5,17.7-2
						c6.1-0.5,12.2-1,18.2-1.4C1174,444.6,1179.6,444.3,1184.8,444.1 M1089.9,450.6c2.2,0,4.4,0.1,6.6,0.3c2.2,0.2,4.4,0.4,6.5,0.8
						c2.1,0.4,4,0.8,5.7,1.2c0.5,2.5,0.9,5.2,1.1,8.4c0.2,3.1,0.3,6.3,0.3,9.5c0,3.2-0.2,6.3-0.6,9.4c-0.3,3-0.8,5.8-1.4,8.1
						c-3.2,1.2-7,2-11.3,2.4c-1.7,0.2-3.3,0.2-4.8,0.2c-2.5,0-4.9-0.2-7.2-0.6c-0.8-2.3-1.4-5.2-1.8-8.7c-0.5-3.5-0.8-7.2-0.9-11
						c-0.1-3.8-0.1-7.5,0.2-11c0.3-3.5,0.8-6.4,1.6-8.7C1085.7,450.7,1087.7,450.6,1089.9,450.6 M1184.8,437.3h-0.1l-0.1,0
						c-5.3,0.2-11,0.5-17,0.8c-6.1,0.4-12.3,0.9-18.4,1.4c-6.2,0.6-12.2,1.3-18,2.1c-5.8,0.8-11.1,1.8-15.8,2.9
						c-1.5,0.3-2.9,0.9-4.1,1.9l-0.9-0.2c-1.8-0.5-3.9-0.9-6.2-1.3c-2.3-0.4-4.7-0.7-7.2-0.9c-2.4-0.2-4.8-0.3-7.1-0.3
						c-2.5,0-4.9,0.1-7,0.4l-4.1,0.6l-1.4,3.9c-1.1,2.9-1.8,6.4-2.1,10.6c-0.3,3.7-0.3,7.7-0.2,11.7c0.1,4,0.5,7.9,0.9,11.6
						c0.5,4,1.2,7.2,2.1,10l1.3,3.9l4,0.7c2.7,0.5,5.5,0.7,8.4,0.7c1.8,0,3.6-0.1,5.5-0.3c4.9-0.5,9.3-1.4,13-2.8l2.1-0.8
						c1.2,0.7,2.6,1.2,4,1.3c3.6,0.6,7.4,1,11.4,1.2c4,0.2,9,0.3,14.8,0.3c11.5,0,21.3-0.2,29.1-0.5c8.2-0.4,14-0.9,17.6-1.7
						l0.4-0.1l0.4-0.1c1.5-0.5,3.1-1.4,4.5-2.5l1.7-1.4l0.6-2.2c1-3.5,1.6-7.5,1.9-11.8c0.3-4.1,0.4-8.3,0.2-12.4
						c-0.2-4.2-0.7-8.2-1.4-11.9c-0.8-4.1-1.9-7.4-3.3-10.1l-0.8-1.6l-1.5-1C1190.1,438,1187.6,437.3,1184.8,437.3L1184.8,437.3z"/>
				</g>
				<g>
					<path class="st0" d="M1097.8,438.5c-2,0-3.8-0.1-5.3-0.4c-2-0.4-3.7-1.2-5.1-2.5c-1.3-1.2-2.3-2.9-2.9-4.9
						c-0.6-1.8-0.9-4.1-0.9-6.8c0-3.3,0-6.8,0.1-10.2c0.1-3.4,0.4-7,0.8-10.4c0.6-5.2,1.1-10.6,1.5-15.8c0.4-5.5,1.3-11,2.5-16.3
						c1.5-7,4-13.2,7.3-18.1c3.3-5,7.3-9.1,11.9-12.2c4.6-3.1,9.6-5.3,15.1-6.7c5.3-1.3,10.9-2,16.7-2c7.3,0,13.9,1.2,19.6,3.6
						c5.7,2.3,10.8,5.5,15.2,9.5c4.3,3.9,8.1,8.6,11.1,13.7c3,5.1,5.4,10.5,7.3,16.1c1.8,5.5,3.2,11.2,4.1,17
						c0.9,5.7,1.3,11.2,1.3,16.4c0,5.7-1.5,10.4-4.3,14.1c-2.9,3.7-6.9,6.1-11.8,7c-2.9,0.5-6.3,1-10.1,1.3
						c-3.7,0.3-7.6,0.5-11.6,0.7c-3.9,0.2-7.9,0.3-11.9,0.4c-3.9,0.1-7.4,0.1-10.6,0.1c-2.4,0-4.5,0-6.4-0.1c-1.9,0-3.7-0.1-5.4-0.1
						c-1.8,0-3.6,0-5.5-0.1c-1,0-2.2,0-3.3-0.1c-0.5,1.2-1.4,2.3-2.5,3.1c-1.6,1.2-3.5,2.1-5.7,2.6c-2,0.5-4,0.9-6.2,1
						C1100.6,438.5,1099.1,438.5,1097.8,438.5z M1136.6,372.1c-5.6,0-9.6,1.4-12.3,4.2c-2.7,2.8-4.1,6.6-4.1,11.4
						c0,0.7,0.1,1.6,0.5,2.1c0.4,0.5,1.2,0.9,2.3,1.3c1.6,0.5,3.6,0.8,6.1,0.9c2.7,0.2,5.9,0.2,9.7,0.2c7.4,0,12.9-0.5,16.6-1.5
						c3.1-0.8,3.4-2.2,3.4-3.5c0-1.7-0.5-3.4-1.4-5.1c-1-1.8-2.5-3.5-4.4-5c-2-1.5-4.4-2.8-7.1-3.7
						C1143.1,372.5,1140,372.1,1136.6,372.1z"/>
					<path class="st2" d="M1139.4,335.4c6.9,0,13,1.1,18.3,3.3c5.4,2.2,10.1,5.2,14.2,8.9c4.1,3.7,7.6,8,10.5,12.9
						c2.9,4.9,5.2,10,7,15.4c1.8,5.4,3.1,10.8,3.9,16.4c0.8,5.6,1.3,10.9,1.3,15.9c0,4.9-1.2,8.9-3.6,12c-2.4,3.1-5.6,5-9.7,5.8
						c-2.8,0.5-6,0.9-9.7,1.2c-3.7,0.3-7.5,0.5-11.5,0.7c-4,0.2-7.9,0.3-11.8,0.4c-3.9,0.1-7.4,0.1-10.5,0.1c-2.3,0-4.4,0-6.3-0.1
						c-1.9,0-3.7-0.1-5.5-0.1s-3.6,0-5.5-0.1c-1.9,0-3.9-0.1-6.2-0.1c0.1,1.6-0.5,2.9-1.8,3.8c-1.3,0.9-2.8,1.6-4.6,2.1
						c-1.8,0.5-3.6,0.8-5.5,0.9c-1.9,0.1-3.4,0.2-4.6,0.2c-1.8,0-3.3-0.1-4.7-0.4c-1.4-0.3-2.5-0.8-3.4-1.6c-0.9-0.8-1.6-2-2-3.5
						c-0.5-1.5-0.7-3.4-0.7-5.8c0-3.4,0-6.7,0.1-10.1c0.1-3.3,0.3-6.7,0.8-10.1c0.6-5.3,1.1-10.7,1.5-16c0.4-5.3,1.2-10.6,2.4-15.9
						c1.4-6.7,3.7-12.3,6.8-17c3.1-4.7,6.7-8.4,11-11.3c4.2-2.9,8.9-4.9,14-6.2C1128.6,336,1133.9,335.4,1139.4,335.4 M1138.9,395.7
						c7.7,0,13.5-0.5,17.4-1.6c3.9-1.1,5.9-3.3,5.9-6.8c0-2.3-0.6-4.5-1.8-6.8c-1.2-2.2-3-4.2-5.3-6s-5-3.2-8.1-4.2
						c-3.1-1.1-6.6-1.6-10.4-1.6c-6.5,0-11.4,1.7-14.8,5.2c-3.3,3.5-5,8.1-5,13.8c0,1.8,0.4,3.2,1.3,4.2c0.8,1.1,2.2,1.9,4,2.4
						c1.8,0.6,4.1,0.9,6.9,1.1C1131.8,395.6,1135.1,395.7,1138.9,395.7 M1139.4,328.5c-6,0-11.9,0.7-17.5,2.1
						c-5.8,1.5-11.3,3.9-16.1,7.2c-4.9,3.4-9.3,7.8-12.8,13.2c-3.5,5.3-6.2,11.8-7.8,19.3c-1.2,5.5-2.1,11.2-2.5,16.8
						c-0.4,5.2-0.9,10.5-1.5,15.7c-0.4,3.6-0.7,7.2-0.8,10.7c-0.1,3.4-0.1,6.9-0.1,10.3c0,3.1,0.3,5.7,1,7.8
						c0.8,2.6,2.1,4.8,3.8,6.4c1.9,1.8,4.2,2.9,6.8,3.4c1.8,0.3,3.8,0.5,6,0.5c1.3,0,3-0.1,5.1-0.2c2.3-0.2,4.6-0.5,6.8-1.1
						c2.6-0.7,4.9-1.8,6.9-3.2c1-0.7,1.8-1.5,2.5-2.4c0.4,0,0.9,0,1.3,0c1.9,0,3.7,0.1,5.6,0.1c1.7,0,3.5,0,5.4,0.1
						c1.9,0,4,0.1,6.4,0.1c3.2,0,6.8,0,10.7-0.1c4-0.1,8-0.2,11.9-0.4c4.1-0.2,8-0.4,11.7-0.7c3.9-0.3,7.4-0.7,10.4-1.3
						c5.8-1.1,10.4-3.9,13.9-8.3c3.4-4.3,5.1-9.8,5.1-16.2c0-5.3-0.5-11-1.3-16.9c-0.9-5.9-2.3-11.8-4.2-17.6
						c-1.9-5.8-4.5-11.4-7.6-16.7c-3.2-5.5-7.2-10.4-11.8-14.6c-4.7-4.2-10.1-7.7-16.2-10.1C1154.1,329.8,1147.1,328.5,1139.4,328.5
						L1139.4,328.5z M1123.7,387.6c0-3.9,1-6.9,3.1-9c2-2.1,5.3-3.1,9.8-3.1c3,0,5.8,0.4,8.2,1.2c2.4,0.8,4.4,1.9,6.1,3.2
						c1.5,1.2,2.7,2.5,3.5,3.9c0.6,1.2,1,2.3,1,3.4c-0.2,0.1-0.4,0.2-0.8,0.3c-2.3,0.6-6.9,1.4-15.7,1.4c-3.7,0-6.9-0.1-9.5-0.2
						c-2.8-0.2-4.5-0.5-5.3-0.8C1123.9,387.7,1123.8,387.7,1123.7,387.6L1123.7,387.6z"/>
				</g>
				<g>
					<path class="st0" d="M1183.9,336.5c-1.2,0-2.6-0.1-4.1-0.4c-1.3-0.3-2.7-0.5-4.1-0.8c-1.5-0.3-2.9-0.6-4.2-1
						c-1.3-0.3-2.5-0.6-3.5-0.9c-5.6-1.3-12-2.8-18.9-4.6c-7-1.8-14.2-4-21.2-6.4c-7-2.4-13.8-5.2-20.1-8.1
						c-6.5-3.1-11.8-6.5-15.8-10.3c-1.6-1.5-3-3.5-4-5.9c-0.9-2.2-1.7-4.7-2.3-7.4c-0.6-2.7-1-5.5-1.3-8.4c-0.3-2.9-0.4-5.8-0.4-8.7
						c0-2.1,0.2-4.5,0.5-7.2c0.4-2.7,1-5.5,1.8-8.3c0.8-2.8,2-5.5,3.4-8.1c1.6-2.8,3.6-5,6.1-6.7c2.9-2,6.4-4,10.5-6
						c4-1.9,8.4-3.7,13.1-5.5c4.7-1.7,9.7-3.5,14.9-5.1c5.2-1.6,10.5-3.2,15.6-4.5c5.2-1.4,10.3-2.7,15.4-3.8
						c4.9-1.1,9.5-2.2,13.9-3.1c0.6-0.2,1.2-0.3,1.9-0.5c0.8-0.2,1.7-0.4,2.5-0.4c0.3,0,0.7,0,1,0.1l0.9,0.1l0.7,0.5
						c1.9,1.3,3.3,3.7,4.3,7.6c0.9,3.1,1.6,6.7,2,10.6c0.4,3.9,0.6,7.9,0.5,11.9c-0.1,4.1-0.5,7.6-1.3,10.5l-0.4,1.7l-1.7,0.6
						c-2.4,0.9-4.9,1.9-7.4,3.1c-2.7,1.3-5.4,2.3-7.9,3l-0.2,0c-1.1,0.3-1.6,0.6-1.7,0.7c-0.3,0.3-0.6,0.8-0.8,1.4
						c-0.3,0.8-0.5,2-0.5,3.4c-0.1,1.7-0.1,3.8-0.1,6.1c0,1.2,0,2.6-0.1,4.3c0,1.5,0,3,0.1,4.4c0.1,1.4,0.2,2.7,0.4,3.8
						c0.1,0.3,0.1,0.6,0.2,0.7c0.4,0.3,0.7,0.5,1,0.8c0.3,0.2,0.7,0.5,1.2,0.7c0.6,0.3,1.3,0.6,2.2,0.9c1,0.4,2.3,0.9,4,1.4
						c1.5,0.5,2.8,0.9,3.9,1.2l3.1,0.9c0.9,0.3,1.8,0.5,2.6,0.8c1,0.3,2,0.8,2.9,1.4l1.4,0.9l0.2,1.7c0.3,2.8,0.3,6-0.1,9.4
						c-0.3,3.3-0.8,6.7-1.4,9.9c-0.7,3.3-1.5,6.3-2.5,9.1c-1,3-2.2,5.3-3.5,7.2l-1,1.4H1183.9z M1121.6,274.9
						c0.2,0.2,0.5,0.4,1.1,0.8c1.8,1,3.9,1.9,6.4,2.6c2.6,0.8,5.3,1.5,7.8,2.2c2.6,0.6,4.6,1.1,6,1.3c0,0,0,0,0,0
						c0.1-0.8,0.2-1.5,0.2-2.3c0-1.5-0.1-3-0.1-4.5c0-2.1-0.1-3.9-0.3-5.2c-0.1-0.9-0.3-1.5-0.4-1.9c-1.2,0.3-2.8,0.6-5,1
						c-2.5,0.5-5.2,1.1-7.8,1.9c-2.5,0.8-4.8,1.7-6.6,2.8C1122.3,274.1,1121.8,274.6,1121.6,274.9z"/>
					<path class="st2" d="M1183.7,217.8c0.2,0,0.4,0,0.6,0c1.2,0.8,2.2,2.7,3,5.7c0.8,3,1.5,6.3,1.9,10.1c0.4,3.8,0.6,7.6,0.5,11.4
						c-0.1,3.8-0.5,7.1-1.1,9.7c-2.5,0.9-5.1,2-7.7,3.2c-2.6,1.2-5.1,2.1-7.4,2.8c-1.4,0.3-2.5,0.9-3.3,1.6
						c-0.8,0.7-1.3,1.6-1.7,2.8c-0.4,1.1-0.6,2.6-0.7,4.3c-0.1,1.7-0.1,3.8-0.1,6.3c0,1.2,0,2.6-0.1,4.2c0,1.6,0,3.2,0.1,4.7
						c0.1,1.5,0.2,2.9,0.4,4.2c0.2,1.3,0.6,2.1,1.1,2.5c0.5,0.4,1,0.8,1.5,1.1c0.5,0.3,1,0.7,1.7,1c0.7,0.3,1.5,0.7,2.5,1.1
						c1,0.4,2.4,0.9,4.1,1.5c1.5,0.5,2.9,0.9,4.1,1.3c1.2,0.3,2.2,0.6,3.1,0.9c0.9,0.3,1.7,0.5,2.5,0.8c0.8,0.3,1.5,0.6,2.2,1
						c0.3,2.6,0.2,5.5-0.1,8.8c-0.3,3.2-0.8,6.4-1.4,9.5c-0.6,3.1-1.4,6-2.3,8.7c-0.9,2.7-1.9,4.8-3,6.3c-1,0-2.2-0.1-3.5-0.4
						c-1.3-0.3-2.7-0.5-4.1-0.8c-1.4-0.3-2.7-0.6-4.1-1c-1.3-0.3-2.5-0.6-3.5-0.9c-5.6-1.3-11.9-2.8-18.8-4.6
						c-7-1.8-14-3.9-20.9-6.3c-7-2.4-13.6-5.1-19.7-8c-6.2-2.9-11.2-6.2-15-9.7c-1.3-1.2-2.3-2.8-3.2-4.8c-0.8-2-1.5-4.3-2.1-6.8
						c-0.5-2.5-1-5.2-1.2-8c-0.3-2.8-0.4-5.6-0.4-8.4c0-1.9,0.2-4.2,0.5-6.8c0.3-2.6,0.9-5.2,1.6-7.7c0.8-2.6,1.8-5,3.1-7.4
						c1.3-2.3,3-4.2,5-5.5c2.8-1.9,6.2-3.8,10.1-5.7c3.9-1.9,8.2-3.7,12.9-5.4c4.7-1.7,9.6-3.4,14.7-5c5.2-1.6,10.3-3.1,15.5-4.5
						c5.2-1.4,10.2-2.7,15.2-3.8c5-1.1,9.6-2.2,14-3.1c0.7-0.2,1.4-0.4,2.1-0.6C1182.7,217.8,1183.2,217.8,1183.7,217.8
						 M1143.7,285.3c1.3,0,2.1-0.5,2.3-1.5c0.4-1.4,0.6-2.9,0.6-4.4c0-1.5-0.1-2.9-0.1-4.4c0-2.3-0.1-4.2-0.3-5.6
						c-0.2-1.5-0.5-2.6-0.9-3.4c-0.4-0.8-0.8-1.2-1.3-1.5c-0.3-0.1-0.5-0.2-0.8-0.2c-0.2,0-0.5,0-0.8,0.1c-1.1,0.3-3,0.6-5.6,1.1
						c-2.7,0.5-5.4,1.2-8.2,2c-2.8,0.8-5.2,1.9-7.4,3.1c-2.1,1.2-3.2,2.7-3.2,4.4c0,1.3,1,2.5,3,3.6c2,1.1,4.3,2.1,7,2.9
						c2.7,0.8,5.4,1.6,8.1,2.2c2.7,0.6,4.7,1.1,6.2,1.3C1142.8,285.3,1143.3,285.3,1143.7,285.3 M1183.7,210.9
						c-1.1,0-2.3,0.2-3.4,0.5c-0.6,0.2-1.2,0.3-1.7,0.5c-4.4,0.9-9,2-13.9,3.1c-5.1,1.2-10.3,2.5-15.5,3.9
						c-5.2,1.4-10.5,2.9-15.7,4.6c-5.3,1.6-10.3,3.4-15.1,5.1c-4.8,1.8-9.3,3.7-13.4,5.6c-4.2,2-7.9,4.1-11,6.2
						c-2.9,1.9-5.3,4.6-7.1,7.8c-1.6,2.8-2.8,5.7-3.7,8.8c-0.9,2.9-1.5,5.9-1.9,8.8c-0.4,2.9-0.6,5.4-0.6,7.7c0,3,0.1,6,0.4,9
						c0.3,3,0.7,6,1.3,8.8c0.6,3,1.5,5.7,2.5,8c1.2,2.9,2.8,5.3,4.8,7.1c4.3,4,9.9,7.7,16.7,10.9c6.4,3,13.3,5.8,20.4,8.3
						c7.1,2.5,14.3,4.6,21.4,6.5c6.9,1.8,13.3,3.4,19,4.7c1,0.2,2.1,0.5,3.4,0.9c1.4,0.4,2.8,0.7,4.3,1c1.4,0.3,2.8,0.6,4.2,0.8
						c1.8,0.3,3.3,0.5,4.8,0.5h3.5l2.1-2.8c1.5-2.1,2.8-4.7,4-8c1-2.9,1.9-6.2,2.6-9.6c0.7-3.3,1.2-6.8,1.5-10.2
						c0.3-3.6,0.4-7,0.1-10l-0.3-3.4l-2.9-1.8c-1.1-0.7-2.3-1.3-3.6-1.7c-0.8-0.3-1.7-0.6-2.8-0.8l-1.7-0.5l-1.4-0.4
						c-1-0.3-2.3-0.7-3.7-1.2c-1.6-0.6-2.9-1-3.9-1.4c-1-0.4-1.6-0.6-1.9-0.8c-0.3-0.2-0.5-0.3-0.6-0.4c-0.1-0.8-0.2-1.8-0.3-2.8
						c-0.1-1.3-0.1-2.7-0.1-4.1c0-1.6,0.1-3.1,0.1-4.4c0-2.3,0-4.3,0.1-6c0.1-1.2,0.2-2,0.3-2.3c0,0,0.1,0,0.1,0l0.2,0l0.1,0
						c2.7-0.8,5.5-1.8,8.4-3.2c2.4-1.1,4.8-2.1,7.2-3l3.4-1.2l0.9-3.5c0.8-3.2,1.3-6.8,1.4-11.3c0.1-4.1-0.1-8.3-0.5-12.3
						c-0.5-4.1-1.2-7.9-2.1-11.2c-1.3-4.6-3.1-7.6-5.7-9.4l-1.4-1l-1.7-0.2C1184.7,210.9,1184.2,210.9,1183.7,210.9L1183.7,210.9z
						 M1129.1,274.7c0.5-0.2,1-0.3,1.5-0.5c2.6-0.8,5.1-1.4,7.5-1.9c0.5-0.1,1-0.2,1.5-0.3c0.1,0.9,0.1,1.8,0.1,2.9
						c0,0.8,0,1.7,0,2.6c-0.6-0.1-1.2-0.3-1.9-0.4c-2.5-0.6-5.1-1.3-7.6-2.1C1129.8,274.9,1129.4,274.8,1129.1,274.7L1129.1,274.7z"
						/>
				</g>
			</g>
		</g>
	</g>
	<g>
		<path class="st3" d="M376.9,1298c-45.5,0-105.2-5.7-131.5-33c-3.1-3.2-11.3-11.8-28.2-70.2c-11.1-38.7-22.3-86.8-31.4-135.6
			c-14.3-76.3-36.5-223.8-24.5-354.4c10.4-113.6,44.4-191.6,100.9-232.1l0.1-0.1c2.4-1.7,54.1-37.4,142.3-43.7
			c-16.1-49.7-42.9-160.7,6.9-236.3c31.5-47.7,86.9-72.4,164.8-73.3c1.5,0,2.9,0,4.3,0c74,0,126.6,23.1,156.3,68.6
			c49.8,76.3,17.9,193.3-0.5,245.6c28.8,1,76.6,5.2,121,20.3c71.4,24.4,110.8,69.2,114,129.8c3.4,63.6-5.4,111-26,140.7
			c-16.8,24.3-35.9,28.8-40.9,29.6c-2.5,0.4-17.4,2.8-39.7,2.8c-23.2,0-58.9-2.7-97.2-15.5c-9-3-17-4.5-23.9-4.5
			c-10,0-16.9,3.1-21.8,9.7c-3.8,5.3-5,11-5.2,11.9l-0.2,1.5l-0.1,0c-0.2,1.8-0.2,7.4,4.3,13.1c7.9,9.8,26.3,16.2,51.9,17.8
			c45.3,2.9,92.3,14.7,128.9,32.3c45.2,21.7,69.5,49.5,70.5,80.4c1.5,48.8-6.6,222.9-25.6,274.2c-3.6,9.7-6,19.5-8.4,29
			c-4.6,18.7-9,36.3-21.1,50.6c-13.8,16.3-34.9,24.3-64.4,24.3c-64.5,0-164-6.8-175.5-7.6c-0.1,0-0.3,0-0.4,0
			c-5.9,0-26.3-1.6-40.6-21.9c-20.7-29.5-17-81.7,11.2-159.6l0.3-0.7l0.3-0.7c3.8-8.6,12.9-36.5,4.5-51.7c-1.4-2.5-5.6-10-23.3-12.5
			c-33.2-4.6-60.3-6.8-82.8-6.8c-43.8,0-70.8,8.6-76.2,24.2c-0.2,1.3-0.5,6.9,5.7,26.7c5.5,17.5,14.5,41.8,28.7,79.8
			c15.1,40.5,14.7,79.1-1.1,105.8c-8.3,14.1-25.2,31.9-58.4,36.7C424.2,1296.3,400.1,1298,376.9,1298z M456.4,787
			c0.8,0,80.3,3.3,123.3,6c0.5,0,1,0,1.5,0c4.1,0,11.8,0,17.3-19.2c4.6-16,5-37,5.2-50.9l0-1.1c0.1-8.5-3.1-13.5-9.7-14.8l-67.7-4.2
			h-65.6c-6.5,0.4-14.5,1-16.8,2c-2.5,3.2-5.2,16.9-7.9,40.8c-1.8,15.7,0.3,27.5,6,34.2c5.2,6.1,12.5,7,13.8,7.1l0.5,0L456.4,787z"
			/>
		<path class="st3" d="M580.5,138.4c266.2,0,128,314.1,128,314.1s4.1-0.2,11.2-0.2c47,0,225.9,8.2,232.5,132.3
			c7.6,142.9-50.9,150.5-50.9,150.5s-14.2,2.6-36.6,2.6c-23.6,0-56.2-2.8-91.2-14.5c-11.7-3.9-21.5-5.5-29.9-5.5
			c-40.7,0-45.9,38-45.9,38s-10.8,48.7,73.6,54.1c84.5,5.4,180,44.4,181.5,94.2c1.5,49.8-7,220-24.4,267
			c-17.4,47-8.7,91.4-75.9,91.4s-175.1-7.6-175.1-7.6s-0.3,0-0.8,0c-7.6,0-66.2-4.8-11.4-156c0,0,36.8-81.2-33.6-91
			c-27-3.7-57.3-7-85.4-7c-45.3,0-84.7,8.5-94.4,37.3c-4.5,13.5,6,42.2,34.7,119.1c18.2,48.8,15.2,108.3-44.4,117
			c-19.2,2.8-42.1,4.5-65.3,4.5c-48.7,0-98.7-7.4-117.8-27.2c-28.2-29.2-178.1-625.9,14.1-763.5c0,0,58.5-41.2,158.1-41.2
			c0,0-126.7-305.4,145.1-308.6C577.8,138.4,579.2,138.4,580.5,138.4 M581.2,812.1c40.6,0,41.2-59.8,41.7-90
			c0.5-30.9-26.5-34.1-26.5-34.1l-69.3-4.3h-66.9c-31.7,2.2-36.5,2.2-43,59.8c-7,62,38.4,62.5,38.4,62.5s79.6,3.2,122.9,6
			C579.4,812.1,580.3,812.1,581.2,812.1 M580.5,100.2L580.5,100.2c-1.6,0-3.1,0-4.6,0c-43,0.5-80.3,8-110.8,22.4
			c-29.3,13.7-52.7,33.8-69.7,59.5c-17.1,26-27.5,57.6-30.7,93.9c-2.4,27.3-0.9,57.3,4.5,89.4c2.9,17.2,6.7,33.1,10.4,46.9
			c-27.4,3.7-53.9,10.3-78.4,19.6c-30.7,11.7-48.2,23.7-50.1,25l-0.1,0.1l-0.1,0.1c-33.2,23.8-59.4,59.3-77.9,105.6
			c-15.5,38.8-25.9,85.9-30.8,140.2c-5,54.1-4.7,115.9,0.8,183.7c4.6,56.5,12.7,115.7,24,176c9.3,49.3,20.6,98.1,31.9,137.3
			c5.2,18,10.1,33.2,14.7,45.2c6.3,16.7,11.6,26.3,18.1,33c14.6,15.1,36.7,25.6,67.5,31.9c22.1,4.5,48.9,7,77.7,7
			c24.4,0,48.9-1.7,70.7-4.9c40.7-5.9,61.7-28.2,72.1-45.9c18.8-31.7,19.7-76.3,2.6-122.2c-12.2-32.7-20.6-55.3-26.1-72.1
			c-4.1-12.4-5.9-19.3-6.6-23c1.4-1.1,4.1-2.6,8.5-4.1c7.7-2.6,22.3-5.8,48.1-5.8c21.6,0,47.9,2.2,80.2,6.6c6,0.8,8.7,2.3,9.2,2.8
			c0.5,0.8,2,5.8,0.2,16.2c-1.7,9.5-5,17.5-5.4,18.5l-0.7,1.5l-0.4,1.2c-15.7,43.4-24,78.9-25.3,108.4c-1.2,28.3,4.3,51.5,16.4,68.7
			c13.1,18.7,34.1,30,56,30c14.4,1,112.2,7.6,176.2,7.6c35.5,0,61.3-10.2,78.9-31c14.9-17.7,20.1-38.3,25-58.3
			c2.3-9.4,4.5-18.3,7.7-27c9-24.3,16.3-72.4,21.6-142.8c3.9-51.5,6.1-109.8,5.2-138.6c-0.4-15-5.7-37.7-28-60.5
			c-13.3-13.6-31.2-25.9-53.3-36.5c-38.8-18.6-88.4-31.1-136-34.1c-26.8-1.7-36.5-8.5-38.2-10.6c0.4-1.1,1-2.6,1.9-3.6
			c0.4-0.4,1.3-1.6,6.1-1.6c3.3,0,9.1,0.6,17.8,3.5c40.8,13.6,78.7,16.4,103.2,16.4c23.4,0,39.3-2.5,42.8-3.1
			c8.8-1.4,33-8,53.4-37.6c23.1-33.3,32.9-84.7,29.3-152.6c-1-19.8-5.6-38.4-13.4-55.4c-7.3-15.7-17.5-30.1-30.3-42.8
			c-20.8-20.5-48.7-36.9-83.1-48.6c-35.2-12-71.7-17.5-101.4-19.9c4.3-14.3,8.7-30.9,12.3-48.7c6.7-33.5,9.3-64.7,7.7-92.9
			c-2.2-37.8-12.1-70.4-29.3-96.8c-16.2-24.8-38.7-44-66.9-57C656.9,107,621.4,100.2,580.5,100.2L580.5,100.2z M461.5,721.9h64.4
			l58.8,3.7c-0.2,9.8-0.5,21.4-2.1,32c-1.3,8.7-3,13.7-4.2,16.2c-42.2-2.6-113-5.5-120.6-5.8c-0.4-0.1-0.8-0.3-1-0.4
			c-0.7-0.7-3.1-6.3-1.6-19.8c1.4-12.5,2.6-20.6,3.6-25.7C459.6,722,460.6,721.9,461.5,721.9L461.5,721.9z"/>
	</g>
	<path class="st4" d="M952.9,904.1c-1.5-49.8-97.1-88.8-181.5-94.2c-84.5-5.4-73.6-54.1-73.6-54.1s7.6-55.2,75.8-32.5
		c68.2,22.7,127.8,11.9,127.8,11.9s58.5-7.6,50.9-150.5c-7.6-142.9-243.7-132.1-243.7-132.1s139.7-317.3-132.1-314.1
		c-271.8,3.2-145.1,308.6-145.1,308.6c-99.6,0-158.1,41.2-158.1,41.2c-192.2,137.5-42.2,734.2-14.1,763.5
		c28.2,29.2,123.5,31.4,183,22.7c59.6-8.7,62.6-68.2,44.4-117c-28.7-76.9-39.2-105.6-34.7-119.1c15.7-46.7,109.4-40.1,179.8-30.3
		c70.4,9.7,33.6,91,33.6,91c-58.5,161.4,12.2,155.9,12.2,155.9s108,7.6,175.1,7.6s58.5-44.4,75.9-91.4
		C945.8,1124.1,954.3,953.9,952.9,904.1z M578.5,812c-43.3-2.7-122.9-6-122.9-6s-45.4-0.5-38.4-62.5c6.5-57.7,11.3-57.7,43-59.8
		h66.9l69.3,4.3c0,0,27.1,3.2,26.5,34.1C622.4,753,621.8,814.7,578.5,812z"/>
</g>
</svg>
