<?xml version="1.0" standalone="no"?>
<svg xmlns:xlink="http://www.w3.org/1999/xlink" id="wave" style="transform:rotate(0deg); transition: 0.3s" viewBox="0 0 1440 100" version="1.1" xmlns="http://www.w3.org/2000/svg"><defs><linearGradient id="sw-gradient-0" x1="0" x2="0" y1="1" y2="0"><stop stop-color="rgba(221, 223, 223, 1)" offset="0%"/><stop stop-color="rgba(221, 223, 223, 1)" offset="100%"/></linearGradient></defs><path style="transform:translate(0, 0px); opacity:1" fill="url(#sw-gradient-0)" d="M0,80L80,76.7C160,73,320,67,480,66.7C640,67,800,73,960,65C1120,57,1280,33,1440,26.7C1600,20,1760,30,1920,28.3C2080,27,2240,13,2400,20C2560,27,2720,53,2880,58.3C3040,63,3200,47,3360,36.7C3520,27,3680,23,3840,18.3C4000,13,4160,7,4320,10C4480,13,4640,27,4800,40C4960,53,5120,67,5280,68.3C5440,70,5600,60,5760,50C5920,40,6080,30,6240,31.7C6400,33,6560,47,6720,46.7C6880,47,7040,33,7200,25C7360,17,7520,13,7680,16.7C7840,20,8000,30,8160,36.7C8320,43,8480,47,8640,46.7C8800,47,8960,43,9120,40C9280,37,9440,33,9600,30C9760,27,9920,23,10080,20C10240,17,10400,13,10560,18.3C10720,23,10880,37,11040,40C11200,43,11360,37,11440,33.3L11520,30L11520,100L11440,100C11360,100,11200,100,11040,100C10880,100,10720,100,10560,100C10400,100,10240,100,10080,100C9920,100,9760,100,9600,100C9440,100,9280,100,9120,100C8960,100,8800,100,8640,100C8480,100,8320,100,8160,100C8000,100,7840,100,7680,100C7520,100,7360,100,7200,100C7040,100,6880,100,6720,100C6560,100,6400,100,6240,100C6080,100,5920,100,5760,100C5600,100,5440,100,5280,100C5120,100,4960,100,4800,100C4640,100,4480,100,4320,100C4160,100,4000,100,3840,100C3680,100,3520,100,3360,100C3200,100,3040,100,2880,100C2720,100,2560,100,2400,100C2240,100,2080,100,1920,100C1760,100,1600,100,1440,100C1280,100,1120,100,960,100C800,100,640,100,480,100C320,100,160,100,80,100L0,100Z"/></svg>