<?xml version="1.0" standalone="no"?>
<svg xmlns:xlink="http://www.w3.org/1999/xlink" id="wave" style="transform:rotate(0deg); transition: 0.3s" viewBox="0 0 1440 180" version="1.1" xmlns="http://www.w3.org/2000/svg"><defs><linearGradient id="sw-gradient-0" x1="0" x2="0" y1="1" y2="0"><stop stop-color="rgba(221, 223, 223, 1)" offset="0%"/><stop stop-color="rgba(221, 223, 223, 1)" offset="100%"/></linearGradient></defs><path style="transform:translate(0, 0px); opacity:1" fill="url(#sw-gradient-0)" d="M0,108L60,96C120,84,240,60,360,60C480,60,600,84,720,102C840,120,960,132,1080,120C1200,108,1320,72,1440,60C1560,48,1680,60,1800,60C1920,60,2040,48,2160,42C2280,36,2400,36,2520,54C2640,72,2760,108,2880,114C3000,120,3120,96,3240,93C3360,90,3480,108,3600,117C3720,126,3840,126,3960,108C4080,90,4200,54,4320,57C4440,60,4560,102,4680,123C4800,144,4920,144,5040,135C5160,126,5280,108,5400,96C5520,84,5640,78,5760,81C5880,84,6000,96,6120,87C6240,78,6360,48,6480,42C6600,36,6720,54,6840,66C6960,78,7080,84,7200,72C7320,60,7440,30,7560,24C7680,18,7800,36,7920,39C8040,42,8160,30,8280,21C8400,12,8520,6,8580,3L8640,0L8640,180L8580,180C8520,180,8400,180,8280,180C8160,180,8040,180,7920,180C7800,180,7680,180,7560,180C7440,180,7320,180,7200,180C7080,180,6960,180,6840,180C6720,180,6600,180,6480,180C6360,180,6240,180,6120,180C6000,180,5880,180,5760,180C5640,180,5520,180,5400,180C5280,180,5160,180,5040,180C4920,180,4800,180,4680,180C4560,180,4440,180,4320,180C4200,180,4080,180,3960,180C3840,180,3720,180,3600,180C3480,180,3360,180,3240,180C3120,180,3000,180,2880,180C2760,180,2640,180,2520,180C2400,180,2280,180,2160,180C2040,180,1920,180,1800,180C1680,180,1560,180,1440,180C1320,180,1200,180,1080,180C960,180,840,180,720,180C600,180,480,180,360,180C240,180,120,180,60,180L0,180Z"/></svg>