<?xml version="1.0" standalone="no"?>
<svg xmlns:xlink="http://www.w3.org/1999/xlink" id="wave" style="transform:rotate(180deg); transition: 0.3s" viewBox="0 0 1440 100" version="1.1" xmlns="http://www.w3.org/2000/svg"><defs><linearGradient id="sw-gradient-0" x1="0" x2="0" y1="1" y2="0"><stop stop-color="rgba(221, 223, 223, 1)" offset="0%"/><stop stop-color="rgba(221, 223, 223, 1)" offset="100%"/></linearGradient></defs><path style="transform:translate(0, 0px); opacity:1" fill="url(#sw-gradient-0)" d="M0,20L80,30C160,40,320,60,480,61.7C640,63,800,47,960,40C1120,33,1280,37,1440,43.3C1600,50,1760,60,1920,56.7C2080,53,2240,37,2400,40C2560,43,2720,67,2880,68.3C3040,70,3200,50,3360,50C3520,50,3680,70,3840,68.3C4000,67,4160,43,4320,40C4480,37,4640,53,4800,61.7C4960,70,5120,70,5280,65C5440,60,5600,50,5760,53.3C5920,57,6080,73,6240,80C6400,87,6560,83,6720,73.3C6880,63,7040,47,7200,43.3C7360,40,7520,50,7680,48.3C7840,47,8000,33,8160,36.7C8320,40,8480,60,8640,66.7C8800,73,8960,67,9120,68.3C9280,70,9440,80,9600,76.7C9760,73,9920,57,10080,53.3C10240,50,10400,60,10560,56.7C10720,53,10880,37,11040,38.3C11200,40,11360,60,11440,70L11520,80L11520,100L11440,100C11360,100,11200,100,11040,100C10880,100,10720,100,10560,100C10400,100,10240,100,10080,100C9920,100,9760,100,9600,100C9440,100,9280,100,9120,100C8960,100,8800,100,8640,100C8480,100,8320,100,8160,100C8000,100,7840,100,7680,100C7520,100,7360,100,7200,100C7040,100,6880,100,6720,100C6560,100,6400,100,6240,100C6080,100,5920,100,5760,100C5600,100,5440,100,5280,100C5120,100,4960,100,4800,100C4640,100,4480,100,4320,100C4160,100,4000,100,3840,100C3680,100,3520,100,3360,100C3200,100,3040,100,2880,100C2720,100,2560,100,2400,100C2240,100,2080,100,1920,100C1760,100,1600,100,1440,100C1280,100,1120,100,960,100C800,100,640,100,480,100C320,100,160,100,80,100L0,100Z"/></svg>