<?xml version="1.0" standalone="no"?>
<svg xmlns:xlink="http://www.w3.org/1999/xlink" id="wave" style="transform:rotate(0deg); transition: 0.3s" viewBox="0 0 1440 110" version="1.1" xmlns="http://www.w3.org/2000/svg"><defs><linearGradient id="sw-gradient-0" x1="0" x2="0" y1="1" y2="0"><stop stop-color="rgba(221, 223, 223, 1)" offset="0%"/><stop stop-color="rgba(221, 223, 223, 1)" offset="100%"/></linearGradient></defs><path style="transform:translate(0, 0px); opacity:1" fill="url(#sw-gradient-0)" d="M0,55L48,51.3C96,48,192,40,288,44C384,48,480,62,576,66C672,70,768,62,864,49.5C960,37,1056,18,1152,23.8C1248,29,1344,59,1440,67.8C1536,77,1632,66,1728,53.2C1824,40,1920,26,2016,31.2C2112,37,2208,62,2304,69.7C2400,77,2496,66,2592,53.2C2688,40,2784,26,2880,18.3C2976,11,3072,11,3168,9.2C3264,7,3360,4,3456,12.8C3552,22,3648,44,3744,51.3C3840,59,3936,51,4032,53.2C4128,55,4224,66,4320,71.5C4416,77,4512,77,4608,67.8C4704,59,4800,40,4896,31.2C4992,22,5088,22,5184,23.8C5280,26,5376,29,5472,27.5C5568,26,5664,18,5760,29.3C5856,40,5952,70,6048,75.2C6144,81,6240,62,6336,51.3C6432,40,6528,37,6624,45.8C6720,55,6816,77,6864,88L6912,99L6912,110L6864,110C6816,110,6720,110,6624,110C6528,110,6432,110,6336,110C6240,110,6144,110,6048,110C5952,110,5856,110,5760,110C5664,110,5568,110,5472,110C5376,110,5280,110,5184,110C5088,110,4992,110,4896,110C4800,110,4704,110,4608,110C4512,110,4416,110,4320,110C4224,110,4128,110,4032,110C3936,110,3840,110,3744,110C3648,110,3552,110,3456,110C3360,110,3264,110,3168,110C3072,110,2976,110,2880,110C2784,110,2688,110,2592,110C2496,110,2400,110,2304,110C2208,110,2112,110,2016,110C1920,110,1824,110,1728,110C1632,110,1536,110,1440,110C1344,110,1248,110,1152,110C1056,110,960,110,864,110C768,110,672,110,576,110C480,110,384,110,288,110C192,110,96,110,48,110L0,110Z"/></svg>